# Blender 4.5.4 LTS
# www.blender.org
o joint_chest.001
v 0.372636 1.671718 0.222085
v 0.375550 1.721655 0.025654
v 0.000000 1.861584 0.392294
v -0.375550 1.721655 0.025654
v 0.000000 1.673375 -0.190660
v -0.387034 1.501284 -0.153922
v -0.266936 1.179727 -0.338983
v -0.609861 0.626031 -0.106271
v 0.564896 1.183613 0.309273
v 0.685279 0.733559 0.363894
v 0.609861 0.626031 -0.106271
v 0.372978 1.345019 0.581751
v -0.372636 1.671718 0.222085
v 0.000000 1.418552 0.711619
v 0.000000 1.097795 0.849143
v 0.453825 0.915191 0.692707
v -0.724589 1.209495 0.081932
v 0.387034 1.501284 -0.153922
v 0.724558 1.209450 0.081503
v -0.564896 1.183613 0.309273
v -0.685279 0.733559 0.363894
v 0.266936 1.179727 -0.338983
v 0.335555 0.707791 -0.405488
v -0.372978 1.345019 0.581751
v -0.453825 0.915191 0.692707
v 0.000000 1.193097 -0.405774
v 0.000000 0.736758 -0.543755
v -0.335555 0.707791 -0.405488
v -0.556840 0.680994 0.055707
vn 0.5202 0.8258 0.2177
vn -0.3375 0.6051 -0.7210
vn -0.7011 0.1404 -0.6990
vn 0.9514 0.2296 -0.2051
vn 0.8445 0.3969 0.3597
vn -0.5202 0.8258 0.2177
vn 0.3696 0.3662 0.8540
vn 0.8511 0.2755 0.4469
vn -0.8081 0.5679 0.1564
vn 0.7387 0.4485 -0.5031
vn -0.9514 0.2296 -0.2051
vn -0.9308 0.3451 -0.1208
vn 0.2634 0.4054 -0.8754
vn 0.7489 0.1980 -0.6324
vn -0.8511 0.2755 0.4469
vn -0.8445 0.3969 0.3597
vn 0.2462 0.2805 -0.9277
vn -0.2415 0.3967 -0.8856
vn -0.4165 0.2999 0.8582
vn -0.3880 0.1837 -0.9032
vn 0.9805 -0.1905 0.0488
vt 0.437500 0.125000
vt 0.437500 0.562500
vt 0.326172 0.015625
vt 0.531250 0.625000
vt 0.568359 0.693359
vt 0.345703 0.392578
vt 0.316406 0.603516
vt 0.203125 0.341797
vt 0.152344 0.275391
vt 0.083984 0.425781
vt 0.167969 0.576172
vt 0.900391 0.800781
vt 0.728516 0.648438
vt 0.802734 0.632812
s 0
f 1/1/1 2/2/1 3/3/1
f 4/2/2 5/2/2 6/2/2
f 6/2/3 7/4/3 8/5/3
f 9/6/4 10/7/4 11/5/4
f 1/1/5 12/8/5 9/6/5
f 4/2/6 13/1/6 3/3/6
f 14/9/7 15/10/7 12/8/7
f 12/8/8 16/11/8 10/7/8
f 13/12/9 4/12/9 17/12/9
f 18/12/10 2/12/10 19/12/10
f 20/6/11 8/5/11 21/7/11
f 13/1/12 6/2/12 20/6/12
f 5/2/13 18/2/13 22/4/13
f 22/4/14 11/5/14 23/13/14
f 24/8/15 21/7/15 25/11/15
f 13/1/16 20/6/16 24/8/16
f 26/4/17 22/4/17 27/14/17
f 7/4/18 5/2/18 26/4/18
f 24/8/19 25/11/19 15/10/19
f 7/4/20 27/14/20 28/13/20
f 13/12/21 29/12/21 6/12/21
