# Blender 4.5.4 LTS
# www.blender.org
o joint_l_foot.001
v 0.010399 0.004514 0.642143
v 0.134325 0.004514 -0.225570
v 0.208943 0.004514 0.533414
v 0.341211 0.004514 -0.378978
v 0.473479 0.004514 0.533414
v 0.548098 0.004514 -0.225570
v 0.672024 0.004514 0.642143
v 0.341211 0.266993 -0.241110
v 0.341211 0.178376 0.363151
v 0.341211 0.004514 0.709448
vn -0.0000 -1.0000 -0.0000
vn 0.7836 0.6110 -0.1119
vn -0.4307 0.4426 0.7865
vn -0.3695 0.9194 0.1348
vn -0.5127 0.7673 0.3852
vn 0.5488 0.3887 -0.7401
vn -0.7836 0.6110 -0.1119
vt 0.937500 0.054688
vt 0.781250 0.291016
vt 0.636719 0.125000
vt 0.781250 0.500000
vt 0.636719 0.312500
vt 0.687500 0.437500
vt 0.500000 0.500000
vt 0.593750 0.437500
vt 0.636719 0.500000
vt 0.638672 0.031250
vt 0.500000 0.291016
s 0
f 1/1/1 2/1/1 3/1/1
f 3/1/1 4/1/1 5/1/1
f 5/1/1 6/1/1 7/1/1
f 6/2/2 8/3/2 7/4/2
f 7/4/3 9/5/3 5/6/3
f 8/3/4 1/7/4 9/5/4
f 9/5/5 3/8/5 10/9/5
f 6/2/6 4/10/6 8/3/6
f 2/11/7 1/7/7 8/3/7
