# Blender 4.5.4 LTS
# www.blender.org
o joint_r_hand.001
v -0.724589 1.209495 0.081932
v -0.387034 1.501284 -0.153922
v -0.475136 1.069399 -0.248709
v -0.556840 0.680994 0.055707
v -0.613861 0.673281 -0.251623
v -0.649170 0.503761 -0.380120
v -0.880396 0.730702 -0.004628
v -0.913477 0.479307 0.063706
v -0.882168 0.696821 0.314529
v -0.875939 0.362523 0.144038
v -0.787265 0.613289 0.448968
v -0.614889 1.131277 0.427657
v -0.372636 1.671718 0.222085
v -0.768240 0.349610 -0.207001
vn -0.7026 0.2863 -0.6514
vn 0.9313 -0.3249 -0.1646
vn -0.4754 0.5922 -0.6506
vn -0.9911 0.1328 0.0086
vn -0.8573 -0.2465 0.4520
vn 0.8512 -0.2646 0.4532
vn -0.7912 0.4925 0.3625
vn -0.8576 0.0947 -0.5055
vn 0.7181 -0.6517 0.2443
vn -0.6350 0.2278 -0.7382
vn -0.9520 0.3049 0.0271
vn -0.8599 -0.4466 -0.2474
vt 0.900391 0.800781
s 0
f 1/1/1 2/1/1 3/1/1
f 3/1/2 4/1/2 5/1/2
f 5/1/3 6/1/3 7/1/3
f 7/1/4 8/1/4 9/1/4
f 9/1/5 10/1/5 11/1/5
f 11/1/6 4/1/6 12/1/6
f 13/1/7 1/1/7 12/1/7
f 8/1/8 6/1/8 14/1/8
f 14/1/9 4/1/9 10/1/9
f 5/1/10 7/1/10 3/1/10
f 9/1/11 1/1/11 7/1/11
f 8/1/12 14/1/12 10/1/12
