# Blender 4.5.4 LTS
# www.blender.org
o joint_l_hand.001
v 0.724558 1.209450 0.081503
v 0.372636 1.671718 0.222085
v 0.615115 1.131021 0.427240
v 0.556781 0.680958 0.055068
v 0.787470 0.613026 0.448163
v 0.875939 0.362403 0.142952
v 0.882278 0.696607 0.313711
v 0.913435 0.479237 0.062708
v 0.880285 0.730680 -0.005455
v 0.648852 0.504023 -0.380921
v 0.613635 0.673456 -0.252350
v 0.474919 1.069587 -0.249089
v 0.387034 1.501284 -0.153922
v 0.768061 0.349732 -0.207972
vn 0.7914 0.4924 0.3622
vn -0.8509 -0.2648 0.4536
vn 0.8576 -0.2468 0.4513
vn 0.9911 0.1328 0.0080
vn 0.4752 0.5924 -0.6505
vn -0.9314 -0.3248 -0.1643
vn 0.7023 0.2866 -0.6516
vn 0.8597 -0.4464 -0.2482
vn -0.8203 -0.5691 0.0577
vn 0.9520 0.3048 0.0266
vn 0.7049 0.2612 0.6594
vn 0.6346 0.2283 -0.7383
vt 0.900391 0.800781
s 0
f 1/1/1 2/1/1 3/1/1
f 3/1/2 4/1/2 5/1/2
f 5/1/3 6/1/3 7/1/3
f 7/1/4 8/1/4 9/1/4
f 9/1/5 10/1/5 11/1/5
f 11/1/6 4/1/6 12/1/6
f 13/1/7 1/1/7 12/1/7
f 8/1/8 6/1/8 14/1/8
f 14/1/9 4/1/9 10/1/9
f 9/1/10 1/1/10 7/1/10
f 5/1/11 7/1/11 3/1/11
f 9/1/12 11/1/12 12/1/12
