# Blender 4.5.4 LTS
# www.blender.org
o joint_waist.001
v -0.609861 0.626031 -0.106271
v -0.335555 0.707791 -0.405488
v -0.584436 0.430799 -0.337212
v 0.609861 0.626031 -0.106271
v 0.712019 0.374864 0.290418
v 0.584436 0.430799 -0.337212
v 0.685279 0.733559 0.363894
v 0.504047 0.380863 0.710933
v -0.712019 0.374864 0.290418
v -0.685279 0.733559 0.363894
v -0.504047 0.380863 0.710933
v 0.335555 0.707791 -0.405488
v 0.283219 0.477422 -0.689736
v -0.453825 0.915191 0.692707
v 0.000000 0.719789 0.913763
v 0.000000 0.736758 -0.543755
v 0.000000 0.574837 -0.692250
v 0.000000 1.097795 0.849143
v 0.453825 0.915191 0.692707
v 0.387034 1.501284 -0.153922
v 0.564896 1.183613 0.309273
vn -0.7005 0.5051 -0.5041
vn 0.9770 0.0974 -0.1899
vn 0.8960 -0.0240 0.4435
vn -0.9770 0.0974 -0.1899
vn -0.8960 -0.0240 0.4435
vn 0.6927 0.4926 -0.5268
vn -0.4124 0.0697 0.9083
vn 0.3404 0.6355 -0.6930
vn 0.3774 0.1560 0.9128
vn 0.9508 0.2308 -0.2068
vt 0.568359 0.693359
vt 0.728516 0.648438
vt 0.693359 0.796875
vt 0.355469 0.808594
vt 0.316406 0.603516
vt 0.119141 0.810547
vt 0.886719 0.781250
vt 0.167969 0.576172
vt 0.015625 0.578125
vt 0.802734 0.632812
vt 0.882812 0.726562
vt 0.083984 0.425781
vt 0.437500 0.562500
vt 0.345703 0.392578
s 0
f 1/1/1 2/2/1 3/3/1
f 4/1/2 5/4/2 6/3/2
f 7/5/3 8/6/3 5/4/3
f 1/1/4 3/3/4 9/4/4
f 10/5/5 9/4/5 11/6/5
f 12/2/6 6/3/6 13/7/6
f 14/8/7 11/6/7 15/9/7
f 16/10/8 12/2/8 17/11/8
f 18/12/9 15/9/9 19/8/9
f 4/1/10 20/13/10 21/14/10
