# Blender 4.5.4 LTS
# www.blender.org
o Body__m_Body.003
v -0.330639 1.906808 -5.941143
v 0.000000 2.453732 -7.694983
v -0.829179 1.199787 -5.955388
v 0.330639 1.906808 -5.941143
v 0.829179 1.199787 -5.955388
v 0.248872 0.869771 -6.480309
v -0.248872 0.869771 -6.480309
v -0.437183 2.893488 -5.304022
v -0.966703 3.344335 -4.647701
v 0.000000 4.801159 -6.545770
v 0.437183 2.893488 -5.304022
v -0.412323 4.141531 -4.513484
v 0.412323 4.141531 -4.513484
v 0.966703 3.344335 -4.647701
v 0.000000 -1.032898 -6.868263
v -0.205374 -0.853414 -7.227234
v 0.205374 -0.853414 -7.227234
v -0.829179 1.199787 -5.955388
v -0.248872 0.869771 -6.480309
v -1.210864 1.062423 -5.084038
v 0.000000 -1.032898 -6.868263
v -0.978192 0.574163 -4.596042
v 0.248872 0.869771 -6.480309
v 0.829179 1.199787 -5.955388
v 1.210864 1.062423 -5.084038
v 0.978192 0.574163 -4.596042
v 0.000000 -1.032898 -6.868263
v -1.001218 1.573084 -5.594453
v -0.330639 1.906808 -5.941143
v -1.632301 2.109111 -4.039629
v -1.320560 1.459246 -3.389019
v 0.000000 0.272708 -4.294599
v 0.330639 1.906808 -5.941143
v 1.001218 1.573084 -5.594453
v 1.632301 2.109111 -4.039629
v 1.320560 1.459246 -3.389019
v 0.000000 0.272708 -4.294599
v -1.320560 2.760246 -4.689626
v 0.437183 2.893488 -5.304022
v -0.437183 2.893488 -5.304022
v 0.000000 1.058092 -2.986361
v 1.320560 2.760246 -4.689626
v 1.934579 3.178774 -2.968581
v 1.565107 2.395362 -2.204192
v 0.000000 1.917022 -1.725383
v 0.000000 1.058092 -2.986361
v 0.966703 3.344335 -4.647701
v -0.966703 3.344335 -4.647701
v 0.000000 1.917022 -1.725383
v 1.565107 3.927561 -3.820676
v 1.564212 3.425817 -1.007593
v 0.000000 2.869910 -0.515184
v 0.597817 4.377764 -4.371946
v 0.412323 4.141531 -4.513484
v -1.565107 3.927561 -3.820676
v -0.597817 4.377764 -4.371946
v -0.412323 4.141531 -4.513484
v -1.565107 2.395362 -2.204192
v 0.000000 2.869910 -0.515184
v 0.000000 3.911619 0.577068
v 0.721785 5.529487 -4.120418
v -0.721785 5.529487 -4.120418
v -1.726437 5.080191 -3.018764
v -1.934579 3.178774 -2.968581
v -1.564212 3.425817 -1.007593
v 0.000000 3.911619 0.577068
v 1.437947 4.423702 0.035797
v 0.941216 5.070269 1.287134
v 0.000000 4.958852 1.432329
v 1.726437 5.080191 -3.018764
v 0.853990 7.144967 -4.130528
v -0.853990 7.144967 -4.130528
v -2.113570 4.240143 -1.888303
v -1.437947 4.423702 0.035797
v 0.000000 4.958852 1.432329
v -0.941216 5.070269 1.287134
v 2.113570 4.240143 -1.888302
v 1.925607 6.026443 -2.478276
v -1.925607 6.026443 -2.478276
v -2.054565 5.096860 -1.244668
v 2.054565 5.096860 -1.244668
vn -0.4992 0.6911 -0.5227
vn -0.0000 0.5148 -0.8573
vn -0.8828 0.0607 -0.4658
vn 0.4992 0.6910 -0.5227
vn 0.8828 0.0607 -0.4658
vn 0.4323 0.0118 -0.9017
vn -0.4322 0.0118 -0.9017
vn -0.4953 0.1135 -0.8613
vn -0.7875 0.2997 -0.5386
vn -0.0000 0.5402 -0.8415
vn 0.4952 0.1135 -0.8613
vn -0.5206 0.8454 -0.1193
vn 0.5206 0.8454 -0.1193
vn 0.7875 0.2997 -0.5386
vn 0.0001 -0.9611 0.2761
vn -0.6301 -0.0489 -0.7750
vn 0.6301 -0.0489 -0.7750
vn -0.8828 0.0607 -0.4659
vn -0.4323 0.0118 -0.9017
vn -0.9548 -0.2367 -0.1800
vn 0.0001 -0.9611 0.2760
vn -0.6500 -0.7009 0.2937
vn 0.4322 0.0117 -0.9017
vn 0.8828 0.0607 -0.4659
vn 0.9548 -0.2367 -0.1800
vn 0.6500 -0.7009 0.2937
vn -0.0001 -0.9612 0.2760
vn -0.7869 0.2173 -0.5775
vn -0.4992 0.6910 -0.5227
vn -0.9732 -0.1665 -0.1586
vn -0.6598 -0.6637 0.3524
vn -0.0000 -0.8723 0.4890
vn 0.4992 0.6911 -0.5227
vn 0.7869 0.2173 -0.5775
vn 0.9732 -0.1665 -0.1586
vn 0.6598 -0.6637 0.3524
vn -0.8518 0.1704 -0.4954
vn 0.4952 0.1136 -0.8613
vn -0.4952 0.1136 -0.8613
vn -0.0000 -0.8401 0.5424
vn 0.8518 0.1704 -0.4954
vn 0.9883 -0.1272 -0.0842
vn 0.6771 -0.6066 0.4168
vn -0.0000 -0.7965 0.6047
vn 0.7874 0.2997 -0.5387
vn -0.7874 0.2997 -0.5387
vn 0.8634 0.1625 -0.4777
vn 0.6467 -0.6098 0.4583
vn -0.0000 -0.7424 0.6699
vn 0.3995 0.2722 -0.8754
vn 0.5206 0.8454 -0.1194
vn -0.8634 0.1625 -0.4777
vn -0.3995 0.2722 -0.8754
vn -0.5206 0.8454 -0.1194
vn -0.6771 -0.6066 0.4168
vn -0.0000 -0.7197 0.6943
vn 0.3267 0.0880 -0.9410
vn -0.3267 0.0880 -0.9410
vn -0.8705 0.1037 -0.4812
vn -0.9883 -0.1272 -0.0842
vn -0.6269 -0.6247 0.4655
vn 0.4088 -0.5998 0.6878
vn 0.5707 -0.7147 0.4043
vn -0.0000 -0.8901 0.4558
vn 0.8705 0.1037 -0.4812
vn 0.1939 -0.1390 -0.9711
vn -0.1939 -0.1390 -0.9711
vn -0.9929 -0.0879 -0.0808
vn -0.4024 -0.7298 0.5526
vn -0.5707 -0.7148 0.4043
vn 0.9932 -0.1046 -0.0503
vn 0.8553 0.3229 -0.4051
vn -0.8553 0.3229 -0.4051
vn -0.8665 0.1300 0.4819
vn 0.8665 0.1300 0.4820
vt 0.867031 0.251717
vt 0.850948 0.223853
vt 0.888669 0.223853
vt 0.834834 0.251717
vt 0.813196 0.223853
vt 0.833857 0.194281
vt 0.868007 0.194281
vt 0.167547 0.155919
vt 0.160161 0.159520
vt 0.160283 0.152043
vt 0.117496 0.168401
vt 0.126347 0.155309
vt 0.113529 0.186376
vt 0.162877 0.167363
vt 0.119846 0.198248
vt 0.117923 0.141942
vt 0.114292 0.123936
vt 0.120884 0.112217
vt 0.163152 0.144230
vt 0.108768 0.174108
vt 0.104495 0.160588
vt 0.087710 0.197302
vt 0.096377 0.212836
vt 0.132328 0.212958
vt 0.104923 0.149541
vt 0.109287 0.136082
vt 0.088717 0.112430
vt 0.097720 0.097079
vt 0.133702 0.097812
vt 0.080660 0.181127
vt 0.083346 0.146977
vt 0.083224 0.162633
vt 0.112491 0.233314
vt 0.081301 0.128452
vt 0.063692 0.100589
vt 0.074709 0.082430
vt 0.093417 0.057466
vt 0.114261 0.076998
vt 0.070528 0.135594
vt 0.070132 0.173681
vt 0.091189 0.252358
vt 0.055544 0.121067
vt 0.052034 0.065737
vt 0.070254 0.040315
vt 0.051119 0.143254
vt 0.056001 0.146764
vt 0.054781 0.187902
vt 0.050935 0.165624
vt 0.055879 0.162206
vt 0.073031 0.226966
vt 0.067690 0.268990
vt 0.046663 0.025452
vt 0.029695 0.140965
vt 0.029389 0.167547
vt 0.030549 0.196326
vt 0.062410 0.208564
vt 0.050020 0.243141
vt 0.043794 0.283334
vt 0.030793 0.050356
vt 0.016205 0.027863
vt 0.025361 0.012970
vt 0.031526 0.112064
vt 0.003204 0.139225
vt 0.003204 0.168432
vt 0.038545 0.221870
vt 0.028474 0.258065
vt 0.022248 0.295328
vt 0.013398 0.280221
vt 0.040071 0.086764
vt 0.005097 0.104251
vt 0.003998 0.203742
vt 0.011414 0.235481
vt 0.013215 0.072542
s 1
f 1/1/1 2/2/2 3/3/3
f 1/1/1 4/4/4 2/2/2
f 2/2/2 5/5/5 6/6/6
f 2/2/2 4/4/4 5/5/5
f 2/2/2 7/7/7 3/3/3
f 2/2/2 6/6/6 7/7/7
f 8/7/8 9/3/9 10/2/10
f 8/7/8 10/2/10 11/6/11
f 9/3/9 12/1/12 10/2/10
f 10/2/10 13/4/13 14/5/14
f 10/2/10 14/5/14 11/6/11
f 10/2/10 12/1/12 13/4/13
f 15/8/15 16/9/16 17/10/17
f 16/9/16 18/11/18 19/12/19
f 16/9/16 20/13/20 18/11/18
f 16/9/16 21/14/21 22/15/22
f 16/9/16 22/15/22 20/13/20
f 16/9/16 23/12/23 17/10/17
f 16/9/16 19/12/19 23/12/23
f 17/10/17 23/12/23 24/16/24
f 17/10/17 24/16/24 25/17/25
f 17/10/17 26/18/26 27/19/27
f 17/10/17 25/17/25 26/18/26
f 18/11/18 28/20/28 29/21/29
f 18/11/18 20/13/20 28/20/28
f 20/13/20 30/22/30 28/20/28
f 20/13/20 22/15/22 31/23/31
f 20/13/20 31/23/31 30/22/30
f 21/14/21 32/24/32 22/15/22
f 22/15/22 32/24/32 31/23/31
f 24/16/24 33/25/33 34/26/34
f 24/16/24 34/26/34 25/17/25
f 25/17/25 34/26/34 35/27/35
f 25/17/25 36/28/36 26/18/26
f 25/17/25 35/27/35 36/28/36
f 26/18/26 37/29/32 27/19/27
f 26/18/26 36/28/36 37/29/32
f 28/20/28 30/22/30 38/30/37
f 28/20/28 38/30/37 29/21/29
f 29/21/29 39/31/38 33/25/33
f 29/21/29 40/32/39 39/31/38
f 29/21/29 38/30/37 40/32/39
f 32/24/32 41/33/40 31/23/31
f 33/25/33 42/34/41 34/26/34
f 33/25/33 39/31/38 42/34/41
f 34/26/34 42/34/41 35/27/35
f 35/27/35 42/34/41 43/35/42
f 35/27/35 43/35/42 44/36/43
f 35/27/35 44/36/43 36/28/36
f 36/28/36 44/36/43 45/37/44
f 36/28/36 45/37/44 46/38/40
f 36/28/36 46/38/40 37/29/32
f 39/31/38 47/39/45 42/34/41
f 40/32/39 38/30/37 48/40/46
f 41/33/40 49/41/44 31/23/31
f 42/34/41 47/39/45 50/42/47
f 42/34/41 50/42/47 43/35/42
f 44/36/43 43/35/42 51/43/48
f 44/36/43 51/43/48 52/44/49
f 44/36/43 52/44/49 45/37/44
f 47/39/45 53/45/50 50/42/47
f 47/39/45 54/46/51 53/45/50
f 48/40/46 55/47/52 56/48/53
f 48/40/46 38/30/37 55/47/52
f 48/40/46 56/48/53 57/49/54
f 49/41/44 58/50/55 31/23/31
f 49/41/44 59/51/49 58/50/55
f 31/23/31 58/50/55 30/22/30
f 52/44/49 51/43/48 60/52/56
f 54/46/51 57/49/54 53/45/50
f 53/45/50 61/53/57 50/42/47
f 53/45/50 56/48/53 61/53/57
f 53/45/50 57/49/54 56/48/53
f 56/48/53 55/47/52 62/54/58
f 56/48/53 62/54/58 61/53/57
f 55/47/52 63/55/59 62/54/58
f 55/47/52 64/56/60 63/55/59
f 55/47/52 38/30/37 64/56/60
f 38/30/37 30/22/30 64/56/60
f 58/50/55 65/57/61 64/56/60
f 58/50/55 59/51/49 65/57/61
f 58/50/55 64/56/60 30/22/30
f 59/51/49 66/58/56 65/57/61
f 60/52/56 51/43/48 67/59/62
f 60/52/56 68/60/63 69/61/64
f 60/52/56 67/59/62 68/60/63
f 61/53/57 70/62/65 50/42/47
f 61/53/57 71/63/66 70/62/65
f 61/53/57 62/54/58 71/63/66
f 62/54/58 63/55/59 72/64/67
f 62/54/58 72/64/67 71/63/66
f 64/56/60 73/65/68 63/55/59
f 64/56/60 65/57/61 73/65/68
f 65/57/61 66/58/56 74/66/69
f 66/58/56 75/67/64 76/68/70
f 66/58/56 76/68/70 74/66/69
f 51/43/48 43/35/42 77/69/71
f 50/42/47 70/62/65 43/35/42
f 71/63/66 78/70/72 70/62/65
f 70/62/65 77/69/71 43/35/42
f 70/62/65 78/70/72 77/69/71
f 72/64/67 63/55/59 79/71/73
f 73/65/68 80/72/74 79/71/73
f 73/65/68 79/71/73 63/55/59
f 77/69/71 78/70/72 81/73/75
