# Blender 4.5.4 LTS
# www.blender.org
o penguin_0_0_node
v 2.387493 0.204426 -9.808669
v 2.631977 1.601900 -8.626699
v 5.076910 0.183657 -7.858322
v 2.880517 -1.083390 -8.600571
v 6.994656 -1.169890 -3.387755
v 5.911142 -2.052110 -4.450671
v 7.063528 -0.150421 -5.549265
v 6.720325 0.503250 -3.709284
v 4.307553 -1.340850 -6.824615
v 4.129363 1.627170 -7.007745
v 6.051902 1.325100 -4.483342
v 4.307553 -1.340850 -6.824615
v 6.051902 1.325100 -4.483342
v 4.129363 1.627170 -7.007745
v 6.994656 -1.169890 -3.387755
v 6.720325 0.503250 -3.709284
v 5.911142 -2.052110 -4.450671
v 2.880517 -1.083390 -8.600571
v -7.063532 -0.150421 -5.549214
v -5.867118 -2.052110 -4.450628
v -6.950624 -1.169890 -3.387704
v -6.676295 0.503250 -3.709236
v -6.007878 1.325100 -4.483298
v -5.076931 0.183657 -7.858285
v -4.215747 -1.340850 -6.824584
v -4.037557 1.627170 -7.007715
v -2.788723 -1.083390 -8.600550
v -2.387527 0.204426 -9.808651
v -2.540183 1.601900 -8.626679
v -6.007878 1.325100 -4.483298
v -4.215747 -1.340850 -6.824584
v -4.037557 1.627170 -7.007715
v -6.676295 0.503250 -3.709236
v -5.867118 -2.052110 -4.450628
v -2.788723 -1.083390 -8.600550
v -2.540183 1.601900 -8.626679
v -6.950624 -1.169890 -3.387704
v 2.631977 1.601900 -8.626699
v 3.860676 1.511360 -6.119744
v 3.016276 -2.023390 -6.133271
v 0.000005 -3.655100 -3.510100
v 3.039327 -2.225540 -3.188651
v 0.000008 -4.713270 -2.924280
v 1.368333 2.418130 -9.678135
v -0.000009 -3.029070 -7.441890
v -0.000018 -2.056960 -9.993890
v 4.279779 0.158720 -2.557286
v 3.531796 2.755390 -3.246553
v 2.729245 3.172580 -6.380130
v 1.608913 4.003660 -4.120570
v 2.650892 2.804080 -1.725519
v 4.279779 0.158720 -2.557286
v 2.631977 1.601900 -8.626699
v 1.368333 2.418130 -9.678135
v 3.860676 1.511360 -6.119744
v 1.104152 -3.207990 -1.669714
v -3.860684 1.511360 -6.119716
v -1.104128 -3.207990 -1.669706
v -3.039313 -2.225540 -3.188629
v -1.368367 2.418130 -9.678125
v -3.016284 -2.023390 -6.133249
v -4.279761 0.158720 -2.557255
v -3.531784 2.755390 -3.246527
v -1.608907 4.003660 -4.120558
v -2.729255 3.172580 -6.380110
v -1.368367 2.418130 -9.678125
v -2.540183 1.601900 -8.626679
v -0.000005 4.091370 -6.264140
v -3.860684 1.511360 -6.119716
v -4.279761 0.158720 -2.557255
v 0.000012 2.731630 -1.699430
v -2.650868 2.804080 -1.725500
v 0.000012 -0.238179 -1.684570
v 2.168946 -1.938260 -1.013179
v 1.639562 -1.954180 -1.008279
v 1.956008 1.107200 -0.931363
v 2.850633 0.322313 -0.890919
v 1.106315 0.332116 -0.987126
v 2.979628 2.403826 -0.027618
v 2.274315 3.772986 -0.027613
v 1.441902 2.513346 -0.027617
v 1.956008 1.107200 -0.931363
v 0.418885 3.296146 -0.027614
v 1.627554 -1.918184 -0.027633
v 0.418885 3.296146 -0.027614
v 1.106315 0.332116 -0.987126
v 4.145075 2.970466 -0.027616
v 2.850633 0.322313 -0.890919
v 2.189193 -1.940854 -0.027633
v 4.145075 2.970466 -0.027616
v 1.627554 -1.918184 -0.027633
v 1.639562 -1.954180 -1.008279
v 2.168946 -1.938260 -1.013179
v 1.106315 0.332116 -0.987126
v 2.189193 -1.940854 -0.027633
v 2.850633 0.322313 -0.890919
v 0.000012 -0.238179 -1.684570
v -1.106286 0.332116 -0.987111
v -1.639534 -1.954180 -1.008265
v -2.168917 -1.938260 -1.013165
v -2.850604 0.322313 -0.890905
v -1.955979 1.107200 -0.931348
v -2.979599 2.403826 -0.027603
v -1.441873 2.513346 -0.027603
v -2.274286 3.772986 -0.027598
v -1.955979 1.107200 -0.931348
v -0.418856 3.296146 -0.027600
v -1.627525 -1.918184 -0.027619
v -0.418856 3.296146 -0.027600
v -1.106286 0.332116 -0.987111
v -4.145046 2.970466 -0.027601
v -2.850604 0.322313 -0.890905
v -2.189164 -1.940854 -0.027619
v -2.168917 -1.938260 -1.013165
v -1.639534 -1.954180 -1.008265
v -2.189164 -1.940854 -0.027619
v -1.627525 -1.918184 -0.027619
v -1.106286 0.332116 -0.987111
v -4.145046 2.970466 -0.027601
v -2.850604 0.322313 -0.890905
v 2.387493 0.204426 -9.808669
v 3.215489 0.378264 -10.718760
v 1.565962 2.712060 -9.861405
v -0.000018 -2.056960 -9.993890
v 0.983494 -3.876075 -11.180170
v 2.387493 0.204426 -9.808669
v -2.387527 0.204426 -9.808651
v -0.983538 -3.876075 -11.180160
v -2.387527 0.204426 -9.808651
v -1.565998 2.712060 -9.861395
v -3.215531 0.378264 -10.718740
v 3.215489 0.378264 -10.718760
v -3.215531 0.378264 -10.718740
v -1.368367 2.418130 -9.678125
v 1.368333 2.418130 -9.678135
v 2.530913 -2.000650 -12.435080
v 3.345731 0.851291 -12.948669
v 1.959268 -1.775405 -13.858990
v -0.000028 -3.623820 -12.612430
v 3.172055 2.228177 -11.886749
v 1.979865 3.397357 -11.853200
v 2.618399 2.556533 -10.744280
v -0.000034 -1.649253 -14.397850
v 2.158266 0.961698 -14.332970
v 2.331878 2.483504 -13.723240
v 3.345731 0.851291 -12.948669
v 2.618399 2.556533 -10.744280
v 1.979865 3.397357 -11.853200
v 1.089209 3.549484 -10.811310
v 3.172055 2.228177 -11.886749
v -0.000033 2.937305 -14.061500
v -0.000027 -4.937650 -12.551829
v 1.488220 3.241583 -13.335469
v 2.331878 2.483504 -13.723240
v 2.821981 2.350121 -12.963960
v 3.345731 0.851291 -12.948669
v 1.979865 3.397357 -11.853200
v -0.000028 3.692271 -12.774879
v -0.000026 5.628698 -12.090640
v 1.089209 3.549484 -10.811310
v -0.000035 0.737640 -14.744880
v 2.158266 0.961698 -14.332970
v -0.000028 3.692271 -12.774879
v -0.000035 0.737640 -14.744880
v -1.089251 3.549484 -10.811299
v 1.488220 3.241583 -13.335469
v -3.345799 0.851291 -12.948640
v -2.530967 -2.000650 -12.435060
v -1.959332 -1.775405 -13.858979
v -3.172105 2.228177 -11.886729
v -2.618441 2.556533 -10.744260
v -1.979915 3.397357 -11.853189
v -2.158334 0.961698 -14.332959
v -3.345799 0.851291 -12.948640
v -2.331941 2.483504 -13.723220
v -2.618441 2.556533 -10.744260
v -1.089251 3.549484 -10.811299
v -1.979915 3.397357 -11.853189
v -3.172105 2.228177 -11.886729
v -1.488280 3.241583 -13.335460
v -2.822039 2.350121 -12.963940
v -3.345799 0.851291 -12.948640
v -1.979915 3.397357 -11.853189
v -2.158334 0.961698 -14.332959
v -2.331941 2.483504 -13.723220
v -1.488280 3.241583 -13.335460
vn 0.9918 -0.1139 0.0580
vn 0.7023 0.5272 -0.4783
vn 0.6879 0.0137 -0.7257
vn 0.5742 -0.7188 -0.3919
vn -0.3792 -0.9221 0.0774
vn 0.9141 0.0454 -0.4030
vn -0.5198 -0.6085 0.5996
vn 0.8274 -0.3284 0.4556
vn 0.1969 0.4920 0.8480
vn -0.4350 0.6252 0.6480
vn -0.2574 0.9258 0.2770
vn 0.5445 0.8385 -0.0198
vn 0.9592 0.1637 -0.2303
vn 0.7384 -0.6525 -0.1703
vn 0.9501 -0.0876 0.2995
vn 0.6978 -0.7160 0.0199
vn -0.0000 -0.9091 -0.4166
vn -0.0000 -0.9963 -0.0855
vn -0.6978 -0.7160 0.0200
vn -0.7379 -0.6507 -0.1791
vn -0.9501 -0.0876 0.2995
vn -0.9556 0.1623 -0.2459
vn -0.5665 -0.7230 -0.3953
vn -0.0028 -0.9539 -0.3001
vn -0.0059 -0.9917 0.1281
vn -0.3793 -0.9220 0.0774
vn -0.4349 0.6252 0.6481
vn -0.2575 0.9257 0.2770
vn 0.5741 -0.7189 -0.3918
vn 0.8275 -0.3283 0.4555
vn 0.1968 0.4920 0.8481
vn -0.9166 0.0481 -0.3969
vn 0.5174 -0.6089 0.6012
vn -0.8144 -0.3297 0.4775
vn 0.3818 -0.9197 0.0916
vn -0.6871 0.0138 -0.7264
vn 0.2640 0.9216 0.2846
vn 0.4291 0.6240 0.6531
vn -0.1875 0.4893 0.8517
vn -0.9904 -0.1150 0.0764
vn -0.7044 0.5269 -0.4756
vn -0.5576 0.8300 -0.0104
vn 0.4292 0.6240 0.6531
vn 0.3818 -0.9197 0.0917
vn 0.2640 0.9216 0.2847
vn -0.1874 0.4893 0.8517
vn -0.5664 -0.7231 -0.3952
vn 0.7784 0.6179 0.1108
vn 0.6122 0.7466 -0.2603
vn 0.2293 0.9580 0.1725
vn 0.9592 0.1638 -0.2303
vn 0.7023 0.5273 -0.4783
vn -0.0000 0.9684 -0.2494
vn -0.6179 0.7399 -0.2661
vn -0.2293 0.9580 0.1725
vn -0.7784 0.6179 0.1109
vn -0.9556 0.1624 -0.2459
vn 0.4253 0.5953 0.6817
vn 0.9501 -0.0875 0.2996
vn -0.0000 0.4966 0.8680
vn 0.9655 0.1164 0.2331
vn 0.0327 0.8439 -0.5355
vn -0.7658 -0.0244 0.6426
vn -0.0000 -0.0724 0.9974
vn 0.7658 -0.0245 0.6426
vn -0.0326 0.8439 -0.5355
vn -0.4253 0.5953 0.6817
vn -0.9655 0.1164 0.2331
vn -0.9501 -0.0875 0.2995
vn 0.0334 -0.4975 0.8668
vn -0.0334 -0.4975 0.8668
vn -0.7658 -0.0245 0.6426
vn -0.6898 -0.5635 0.4546
vn 0.7049 -0.6395 0.3070
vn 0.9654 0.1165 0.2331
vn -0.7048 -0.6395 0.3070
vn 0.6898 -0.5634 0.4546
vn 0.0429 0.3490 0.9361
vn -0.0493 0.6525 -0.7562
vn -0.0261 0.5156 0.8564
vn 0.0326 0.8440 -0.5354
vn 0.8034 0.1615 -0.5732
vn 0.9655 0.1165 0.2331
vn 0.3560 -0.5286 0.7706
vn -0.6899 -0.5634 0.4546
vn -0.2885 -0.3607 0.8869
vn -0.9158 0.2218 -0.3347
vn -0.9158 0.2219 -0.3348
vn 0.3561 -0.5286 0.7706
vn 0.8034 0.1616 -0.5732
vn -0.0429 0.3490 0.9361
vn 0.0261 0.5156 0.8564
vn 0.0493 0.6525 -0.7562
vn -0.0327 0.8440 -0.5353
vn -0.8034 0.1615 -0.5732
vn -0.9655 0.1165 0.2331
vn -0.7049 -0.6395 0.3070
vn -0.3560 -0.5286 0.7706
vn 0.2885 -0.3607 0.8869
vn 0.9158 0.2217 -0.3348
vn -0.3561 -0.5286 0.7706
vn -0.9654 0.1165 0.2331
vn 0.9223 -0.1164 0.3685
vn 0.3623 0.5341 0.7639
vn -0.3623 0.5341 0.7639
vn 0.3464 0.7372 0.5802
vn -0.3464 0.7372 0.5801
vn -0.6948 0.5852 0.4181
vn -0.9223 -0.1164 0.3685
vn -0.0060 -0.9918 0.1280
vn 0.6318 -0.7096 0.3118
vn 0.9918 -0.1138 0.0580
vn -0.6318 -0.7096 0.3118
vn -0.9223 -0.1165 0.3685
vn -0.8700 -0.4792 -0.1160
vn -0.9320 0.0120 -0.3624
vn -0.5597 -0.5186 -0.6464
vn -0.4122 0.0566 -0.9093
vn -0.0000 -0.3484 -0.9373
vn -0.0000 -0.6425 -0.7663
vn 0.5597 -0.5186 -0.6464
vn 0.4122 0.0566 -0.9093
vn 0.9320 0.0120 -0.3624
vn 0.8700 -0.4792 -0.1160
vn 0.9223 -0.1165 0.3685
vn -0.0000 -0.8485 -0.5292
vn 0.8977 0.4391 0.0354
vn 0.6102 0.7847 -0.1097
vn 0.6948 0.5852 0.4180
vn 0.7891 0.5372 -0.2980
vn 0.5836 0.5423 -0.6044
vn 0.9320 0.0121 -0.3624
vn 0.4122 0.0567 -0.9093
vn 0.9319 0.0121 -0.3624
vn -0.0000 0.5662 -0.8243
vn -0.0000 0.0856 -0.9963
vn -0.4122 0.0567 -0.9093
vn -0.5836 0.5423 -0.6044
vn -0.9319 0.0121 -0.3624
vn -0.9320 0.0122 -0.3623
vn -0.8978 0.4391 0.0354
vn -0.6101 0.7847 -0.1097
vn -0.0000 0.8112 -0.5847
vn -0.2882 0.8484 -0.4440
vn 0.2882 0.8484 -0.4440
vn 0.6101 0.7847 -0.1096
vn 0.6948 0.5852 0.4181
vn 0.6101 0.7847 -0.1097
vn 0.8978 0.4391 0.0354
vn 0.9320 0.0121 -0.3623
vn -0.0000 0.8112 -0.5848
vn -0.0000 0.9995 0.0305
vn -0.3464 0.7372 0.5802
vn -0.0000 0.0854 -0.9963
vn 0.2883 0.8484 -0.4439
vn -0.8977 0.4391 0.0354
vn -0.6948 0.5852 0.4180
vn -0.6102 0.7847 -0.1097
vn -0.7891 0.5372 -0.2980
vn -0.9320 0.0122 -0.3624
vn -0.2883 0.8484 -0.4440
vt 0.722473 0.134709
vt 0.756585 0.019036
vt 0.898646 0.106269
vt 0.805925 0.206097
vt 1.012660 0.196853
vt 1.071010 0.094204
vt 1.193180 0.210125
vt 1.244510 0.132247
vt 1.181320 0.020372
vt 1.107970 -0.025139
vt 0.927162 -0.007539
vt 0.689402 -0.021832
vt 0.883575 -0.013063
vt 0.946127 0.233907
vt 1.073120 0.026769
vt 1.084200 0.202892
vt 1.090490 0.363626
vt 1.170730 0.393513
vt 0.865938 0.355492
vt 0.753661 0.351425
vt 0.677693 0.804067
vt 0.440280 0.559669
vt 0.422751 0.823184
vt 0.667793 0.989453
vt 0.437137 0.992180
vt 0.654589 0.445305
vt 0.510873 0.478868
vt 0.730369 0.556259
vt 0.270408 0.332175
vt 0.191754 0.640877
vt 0.115564 0.399472
vt 0.370507 0.620881
vt 0.248184 0.880893
vt 0.123796 1.001050
vt 0.000000 0.649351
vt -0.123796 1.001050
vt -0.191754 0.640877
vt -0.115564 0.399472
vt -0.270408 0.332175
vt -0.370507 0.620881
vt -0.248184 0.880893
vt 0.154054 0.182713
vt 0.410726 0.258535
vt 0.000000 0.179926
vt 0.327263 0.062249
vt 0.208246 0.043098
vt 0.093142 0.021952
vt 0.000000 -0.009024
vt -0.093143 0.021952
vt -0.208246 0.043098
vt -0.154054 0.182713
vt -0.327263 0.062249
vt -0.410726 0.258535
vt 1.305770 0.160685
vt 1.381330 0.041103
vt 1.179470 -0.028308
vt 1.178780 0.091023
vt 1.159040 0.149497
vt 1.023170 0.625420
vt 1.000000 0.685252
vt 0.976827 0.625420
vt 1.000860 0.543718
vt 1.067080 0.650000
vt 1.028530 0.535981
vt 1.014740 0.474580
vt 1.021310 0.427519
vt 0.983750 0.474580
vt 0.977364 0.427519
vt 0.932920 0.650000
vt 0.972228 0.535981
vt 0.986434 0.450000
vt 0.925021 0.662290
vt 1.013350 0.450000
vt 1.074980 0.662290
vt 1.282360 -0.043462
vt 1.282360 0.038286
vt 1.084100 -0.097219
vt 1.074930 -0.217530
vt 0.917475 -0.097219
vt 1.055180 0.044864
vt 0.946402 0.044864
vt 0.853315 0.040100
vt 0.719219 0.038286
vt 0.719219 -0.043462
vt 0.926646 -0.217530
vt 1.000790 -0.286484
vt 1.076510 -0.043189
vt 1.282360 0.053760
vt 0.925069 -0.043189
vt 0.719219 0.053760
vt 0.719219 0.138231
vt 0.842371 0.138231
vt 0.719219 0.285723
vt 0.884256 0.223344
vt 0.885877 0.363488
vt 1.000790 0.223344
vt 1.000790 0.093839
vt 1.117320 0.223344
vt 1.115700 0.363488
vt 1.282360 0.285723
vt 1.159210 0.138231
vt 1.282360 0.138231
vt 1.000790 0.023955
vt 0.647752 0.170584
vt 0.446466 0.165983
vt 0.567261 0.013840
vt 0.606801 0.318375
vt 0.560122 0.422546
vt 0.789535 0.316275
vt 1.113240 0.338593
vt 1.117220 0.236575
vt 1.282360 0.185253
vt 1.000790 0.255120
vt 1.000790 0.338593
vt 0.888334 0.338593
vt 0.884354 0.236575
vt 0.719219 0.185253
vt 0.811535 0.109789
vt 0.901931 0.107406
vt 1.000790 0.154215
vt 0.926479 0.205555
vt 1.075100 0.205555
vt 1.099650 0.107406
vt 1.148260 0.040100
vt 1.190040 0.109789
vt 0.787324 0.980670
vt 1.000000 0.965397
vt 1.000000 0.700000
vt 0.745555 0.844371
vt 1.000790 0.363488
vt 0.428005 0.369346
s 1
f 1/1/1 2/2/2 3/3/3
f 4/4/4 1/1/1 3/3/3
f 4/4/4 3/3/3 9/5/5
f 9/5/5 3/3/3 7/6/6
f 9/5/5 7/6/6 6/7/7
f 5/8/8 6/7/7 7/6/6
f 7/6/6 8/9/9 5/8/8
f 7/6/6 11/10/10 8/9/9
f 7/6/6 10/11/11 11/10/10
f 3/3/3 10/11/11 7/6/6
f 3/3/3 2/2/2 10/11/11
f 44/12/12 2/2/2 1/1/1
f 2/2/2 39/13/13 4/4/4
f 39/13/13 40/14/14 4/4/4
f 40/14/14 39/13/13 47/15/15
f 40/14/14 47/15/15 42/16/16
f 41/17/17 40/14/14 42/16/16
f 41/17/17 42/16/16 43/18/18
f 41/17/17 43/18/18 59/16/19
f 59/16/19 61/14/20 41/17/17
f 62/15/21 61/14/20 59/16/19
f 62/15/21 57/13/22 61/14/20
f 61/14/20 57/13/22 27/4/23
f 45/19/24 61/14/20 27/4/23
f 46/20/25 45/19/24 27/4/23
f 45/19/24 46/20/25 4/4/4
f 45/19/24 4/4/4 40/14/14
f 45/19/24 40/14/14 41/17/17
f 41/17/17 61/14/20 45/19/24
f 12/21/26 13/22/27 14/23/28
f 12/21/26 14/23/28 18/24/29
f 18/24/29 14/23/28 38/25/2
f 15/26/30 16/27/31 17/28/7
f 17/28/7 16/27/31 13/22/27
f 17/28/7 13/22/27 12/21/26
f 19/6/32 20/7/33 21/8/34
f 19/6/32 25/5/35 20/7/33
f 19/6/32 24/3/36 25/5/35
f 26/11/37 24/3/36 19/6/32
f 23/10/38 26/11/37 19/6/32
f 22/9/39 23/10/38 19/6/32
f 22/9/39 19/6/32 21/8/34
f 27/4/23 24/3/36 28/1/40
f 27/4/23 25/5/35 24/3/36
f 27/4/23 57/13/22 29/2/41
f 46/20/25 27/4/23 28/1/40
f 4/4/4 46/20/25 1/1/1
f 26/11/37 29/2/41 24/3/36
f 28/1/40 24/3/36 29/2/41
f 60/12/42 28/1/40 29/2/41
f 30/22/43 31/21/44 32/23/45
f 34/28/33 31/21/44 30/22/43
f 33/27/46 34/28/33 30/22/43
f 37/26/34 34/28/33 33/27/46
f 32/23/45 35/24/47 36/25/41
f 31/21/44 35/24/47 32/23/45
f 48/29/48 49/30/49 50/31/50
f 55/32/51 49/30/49 48/29/48
f 53/33/52 49/30/49 55/32/51
f 49/30/49 53/33/52 54/34/12
f 54/34/12 68/35/53 49/30/49
f 54/34/12 66/36/42 68/35/53
f 68/35/53 66/36/42 65/37/54
f 64/38/55 68/35/53 65/37/54
f 63/39/56 64/38/55 65/37/54
f 69/40/57 63/39/56 65/37/54
f 67/41/41 69/40/57 65/37/54
f 65/37/54 66/36/42 67/41/41
f 51/42/58 52/43/59 48/29/48
f 51/42/58 48/29/48 50/31/50
f 50/31/50 71/44/60 51/42/58
f 50/31/50 64/38/55 71/44/60
f 68/35/53 64/38/55 50/31/50
f 50/31/50 49/30/49 68/35/53
f 55/32/51 48/29/48 52/43/59
f 51/42/58 77/45/61 52/43/59
f 76/46/62 77/45/61 51/42/58
f 71/44/60 76/46/62 51/42/58
f 71/44/60 78/47/63 76/46/62
f 71/44/60 97/48/64 78/47/63
f 98/49/65 97/48/64 71/44/60
f 102/50/66 98/49/65 71/44/60
f 102/50/66 71/44/60 72/51/67
f 102/50/66 72/51/67 101/52/68
f 70/53/69 101/52/68 72/51/67
f 70/53/69 72/51/67 63/39/56
f 69/40/57 70/53/69 63/39/56
f 64/38/55 63/39/56 72/51/67
f 64/38/55 72/51/67 71/44/60
f 43/18/18 42/16/16 56/54/70
f 56/54/70 58/54/71 43/18/18
f 73/55/64 58/54/71 56/54/70
f 94/56/72 73/55/64 56/54/70
f 94/56/72 56/54/70 75/57/73
f 56/54/70 74/58/74 75/57/73
f 74/58/74 56/54/70 42/16/16
f 74/58/74 42/16/16 47/15/15
f 74/58/74 47/15/15 96/56/75
f 43/18/18 58/54/71 59/16/19
f 100/58/76 59/16/19 58/54/71
f 58/54/71 99/57/77 100/58/76
f 58/54/71 118/56/65 99/57/77
f 58/54/71 73/55/64 118/56/65
f 79/59/78 80/60/79 81/61/80
f 79/59/78 82/62/81 80/60/79
f 87/63/82 82/62/81 79/59/78
f 87/63/82 88/64/83 82/62/81
f 88/64/83 87/63/82 93/65/74
f 93/65/74 87/63/82 95/66/84
f 93/65/74 95/66/84 92/67/85
f 95/66/84 91/68/86 92/67/85
f 91/68/86 83/69/87 92/67/85
f 92/67/85 83/69/87 86/70/72
f 83/69/87 82/62/81 86/70/72
f 81/61/80 82/62/81 83/69/87
f 82/62/81 81/61/80 80/60/79
f 84/71/86 81/61/80 85/72/88
f 79/59/78 81/61/80 84/71/86
f 79/59/78 84/71/86 89/73/89
f 79/59/78 89/73/89 90/74/90
f 103/59/91 104/61/92 105/60/93
f 103/59/91 105/60/93 106/62/94
f 111/63/95 103/59/91 106/62/94
f 111/63/95 106/62/94 112/64/96
f 112/64/96 114/65/97 111/63/95
f 111/63/95 114/65/97 116/66/98
f 114/65/97 115/67/77 116/66/98
f 115/67/77 117/68/99 116/66/98
f 107/69/100 117/68/99 115/67/77
f 110/70/65 107/69/100 115/67/77
f 107/69/100 110/70/65 106/62/94
f 104/61/92 107/69/100 106/62/94
f 106/62/94 105/60/93 104/61/92
f 108/71/99 109/72/100 104/61/92
f 103/59/91 108/71/99 104/61/92
f 103/59/91 113/73/101 108/71/99
f 103/59/91 119/74/95 113/73/101
f 59/16/19 100/58/76 62/15/21
f 62/15/21 100/58/76 120/56/102
f 121/75/1 122/76/103 123/77/104
f 135/78/12 121/75/1 123/77/104
f 123/77/104 130/79/105 135/78/12
f 130/79/105 123/77/104 149/80/106
f 177/81/107 130/79/105 149/80/106
f 130/79/105 177/81/107 176/82/108
f 130/79/105 176/82/108 131/83/109
f 129/84/40 130/79/105 131/83/109
f 134/85/42 130/79/105 129/84/40
f 130/79/105 134/85/42 135/78/12
f 124/86/110 125/87/111 126/88/112
f 124/86/110 128/89/113 125/87/111
f 124/86/110 127/90/40 128/89/113
f 133/91/114 128/89/113 127/90/40
f 133/91/114 168/92/115 128/89/113
f 133/91/114 167/93/116 168/92/115
f 167/93/116 169/94/117 168/92/115
f 167/93/116 184/95/118 169/94/117
f 169/94/117 184/95/118 143/96/119
f 143/96/119 139/97/120 169/94/117
f 143/96/119 138/98/121 139/97/120
f 138/98/121 143/96/119 162/99/122
f 137/100/123 138/98/121 162/99/122
f 137/100/123 136/101/124 138/98/121
f 132/102/125 136/101/124 137/100/123
f 132/102/125 125/87/111 136/101/124
f 132/102/125 126/88/112 125/87/111
f 138/98/121 125/87/111 139/97/120
f 138/98/121 136/101/124 125/87/111
f 152/103/126 139/97/120 125/87/111
f 152/103/126 128/89/113 139/97/120
f 125/87/111 128/89/113 152/103/126
f 169/94/117 139/97/120 128/89/113
f 169/94/117 128/89/113 168/92/115
f 140/104/127 141/105/128 142/106/129
f 155/107/130 141/105/128 140/104/127
f 154/108/131 141/105/128 155/107/130
f 154/108/131 155/107/130 156/109/132
f 156/109/132 155/107/130 140/104/127
f 144/110/133 145/111/131 146/112/134
f 144/110/133 151/113/135 145/111/131
f 164/114/136 151/113/135 144/110/133
f 164/114/136 173/115/137 151/113/135
f 173/115/137 175/116/138 151/113/135
f 173/115/137 174/117/139 175/116/138
f 174/117/140 131/83/109 179/118/141
f 179/118/141 131/83/109 176/82/108
f 176/82/108 177/81/107 178/119/142
f 163/120/143 180/121/144 178/119/142
f 163/120/143 151/113/135 180/121/144
f 163/120/143 153/122/145 151/113/135
f 163/120/143 148/123/146 153/122/145
f 147/124/147 148/123/148 149/80/106
f 123/77/104 147/124/147 149/80/106
f 122/76/103 147/124/147 123/77/104
f 150/125/149 147/124/147 122/76/103
f 146/112/150 150/125/149 122/76/103
f 145/111/131 151/113/135 153/122/145
f 175/116/138 180/121/144 151/113/135
f 157/126/148 158/127/151 159/128/152
f 160/129/106 157/126/148 159/128/152
f 160/129/106 159/128/152 165/129/153
f 165/129/153 159/128/152 183/126/142
f 183/126/142 159/128/152 158/127/151
f 143/96/119 161/130/154 162/99/122
f 143/96/119 184/95/118 161/130/154
f 154/108/131 166/131/155 141/105/128
f 170/104/156 171/106/157 172/105/158
f 181/107/159 170/104/156 172/105/158
f 181/107/159 182/109/160 170/104/156
f 185/108/138 182/109/160 181/107/159
f 185/108/138 181/107/159 172/105/158
f 185/108/138 172/105/158 186/131/161
