# Blender 4.5.4 LTS
# www.blender.org
o spe10_kart_root.polymsh103
v -0.454277 6.316850 3.750377
v -0.454277 7.230426 3.750377
v 0.454277 7.230426 3.750377
v 0.454277 6.316850 3.750377
v 2.024460 7.356094 6.485829
v 2.024460 6.316850 6.169539
v 1.492581 6.316850 5.123182
v 1.492581 7.226344 5.123182
v -1.492581 6.316850 5.123182
v -1.492581 7.226344 5.123182
v -0.454277 7.230426 3.750377
v -1.492581 7.226344 5.123182
v 1.492581 7.226344 5.123182
v 0.454277 7.230426 3.750377
v -2.024460 7.356094 6.485829
v 2.024460 7.356094 6.485829
v -2.024460 6.316850 6.169539
v -2.024460 7.356094 6.485829
v 2.181177 9.562997 7.161074
v 1.888955 10.653584 7.496386
v 1.888955 10.653584 9.477785
v 2.181177 9.562997 9.477785
v 1.090588 11.451952 7.735043
v 1.090588 11.451952 9.477785
v 0.000000 6.335957 9.477785
v 2.181177 9.562997 9.477785
v 1.888955 10.653584 9.477785
v 0.000000 11.744174 7.820187
v 0.000000 11.744174 9.477785
v 1.090588 11.451952 9.477785
v 0.000000 11.744174 9.477785
v 2.181177 6.335957 6.172657
v 2.181177 6.335957 9.477785
v 1.090588 11.451952 7.735043
v 0.000000 6.335957 6.172657
v 0.000000 11.744174 7.820187
v 2.181177 9.562997 7.161074
v 2.181177 6.335957 6.172657
v 1.888955 10.653584 7.496386
v 2.181177 6.335957 9.477785
v -2.181177 9.562997 7.161074
v -2.181177 9.562997 9.477785
v -1.888955 10.653584 9.477785
v -1.888955 10.653584 7.496386
v -1.090588 11.451952 9.477785
v -1.090588 11.451952 7.735043
v -1.888955 10.653584 9.477785
v -2.181177 9.562997 9.477785
v -1.090588 11.451952 9.477785
v -2.181177 6.335957 6.172657
v -2.181177 6.335957 9.477785
v -1.090588 11.451952 7.735043
v -2.181177 6.335957 6.172657
v -2.181177 9.562997 7.161074
v -1.888955 10.653584 7.496386
v -2.181177 6.335957 9.477785
v -0.375535 13.394403 8.553319
v -0.265543 13.394403 8.287776
v -0.265543 12.492292 8.287776
v -0.375535 12.492292 8.553319
v -0.271893 11.590182 8.553319
v -0.192257 11.590182 8.745576
v -0.265543 12.492292 8.818862
v -0.375535 13.394403 8.553319
v -0.265543 13.394403 8.818862
v 0.000000 13.520467 8.553319
v 0.000000 13.394403 8.177784
v 0.000000 12.492292 8.177784
v 0.000000 11.590182 8.825211
v 0.000000 12.492292 8.928854
v 0.000000 13.394403 8.928854
v 0.000000 13.394403 8.177784
v 0.265543 13.394403 8.287776
v 0.265543 12.492292 8.287776
v 0.000000 12.492292 8.177784
v 0.192257 11.590182 8.745576
v 0.265543 12.492292 8.818862
v 0.265543 13.394403 8.818862
v 0.375535 13.394403 8.553319
v 0.375535 12.492292 8.553319
v 0.271893 11.590182 8.553319
v 0.375535 13.394403 8.553319
v 0.265543 13.394403 8.818862
v 0.192257 11.590182 8.361062
v 0.265543 13.394403 8.287776
v 0.000000 13.394403 8.928854
v 0.000000 11.590182 8.281426
v 0.000000 13.394403 8.177784
v -0.265543 13.394403 8.818862
v 0.000000 11.590182 8.281426
v -0.192257 11.590182 8.361062
v -0.265543 13.394403 8.287776
v -2.673482 12.342389 8.553319
v -2.586230 12.409361 8.287776
v -2.036949 11.693755 8.287776
v -2.124201 11.626782 8.553319
v -1.492705 10.974281 8.553319
v -1.429534 11.022770 8.745576
v -2.036949 11.693755 8.818862
v -2.673482 12.342389 8.553319
v -2.586230 12.409361 8.818862
v -2.452344 12.671047 8.553319
v -2.375586 12.571046 8.177784
v -1.826305 11.855439 8.177784
v -1.277024 11.139832 8.825211
v -1.826305 11.855439 8.928854
v -2.375586 12.571046 8.928854
v -2.375586 12.571046 8.177784
v -2.164941 12.732733 8.287776
v -1.615660 12.017124 8.287776
v -1.826305 11.855439 8.177784
v -1.124515 11.256895 8.745576
v -1.615660 12.017124 8.818862
v -2.164941 12.732733 8.818862
v -2.077689 12.799704 8.553319
v -1.528409 12.084097 8.553319
v -1.061343 11.305384 8.553319
v -2.077689 12.799704 8.553319
v -2.164941 12.732733 8.818862
v -1.124515 11.256895 8.361062
v -2.164941 12.732733 8.287776
v -2.375586 12.571046 8.928854
v -1.277024 11.139832 8.281426
v -2.375586 12.571046 8.177784
v -2.586230 12.409361 8.818862
v -1.277024 11.139832 8.281426
v -1.429534 11.022770 8.361062
v -2.586230 12.409361 8.287776
v 2.673482 12.342389 8.553319
v 2.124201 11.626782 8.553319
v 2.036949 11.693755 8.287776
v 2.586230 12.409361 8.287776
v 1.492705 10.974281 8.553319
v 2.036949 11.693755 8.818862
v 1.429534 11.022770 8.745576
v 2.452344 12.671047 8.553319
v 2.586230 12.409361 8.818862
v 2.673482 12.342389 8.553319
v 1.826305 11.855439 8.177784
v 2.375586 12.571046 8.177784
v 1.826305 11.855439 8.928854
v 1.277024 11.139832 8.825211
v 2.375586 12.571046 8.928854
v 2.375586 12.571046 8.177784
v 1.826305 11.855439 8.177784
v 1.615660 12.017124 8.287776
v 2.164941 12.732733 8.287776
v 1.615660 12.017124 8.818862
v 1.124515 11.256895 8.745576
v 2.164941 12.732733 8.818862
v 1.528409 12.084097 8.553319
v 2.077689 12.799704 8.553319
v 1.061343 11.305384 8.553319
v 2.077689 12.799704 8.553319
v 2.164941 12.732733 8.818862
v 1.124515 11.256895 8.361062
v 2.164941 12.732733 8.287776
v 2.375586 12.571046 8.928854
v 1.277024 11.139832 8.281426
v 2.375586 12.571046 8.177784
v 2.586230 12.409361 8.818862
v 1.277024 11.139832 8.281426
v 1.429534 11.022770 8.361062
v 2.586230 12.409361 8.287776
v -3.739905 10.209887 8.553319
v -3.715270 10.317084 8.287776
v -2.836078 10.115032 8.287776
v -2.860714 10.007833 8.553319
v -1.958309 9.906792 8.553319
v -1.940472 9.984404 8.745576
v -2.836078 10.115032 8.818862
v -3.739905 10.209887 8.553319
v -3.715270 10.317084 8.818862
v -3.778654 10.604115 8.553319
v -3.655794 10.575881 8.177784
v -2.776603 10.373829 8.177784
v -1.897411 10.171777 8.825211
v -2.776603 10.373829 8.928854
v -3.655794 10.575881 8.928854
v -3.655794 10.575881 8.177784
v -3.596318 10.834678 8.287776
v -2.717127 10.632626 8.287776
v -2.776603 10.373829 8.177784
v -1.854350 10.359149 8.745576
v -2.717127 10.632626 8.818862
v -3.596318 10.834678 8.818862
v -3.571683 10.941875 8.553319
v -2.692491 10.739822 8.553319
v -1.836513 10.436761 8.553319
v -3.571683 10.941875 8.553319
v -3.596318 10.834678 8.818862
v -1.854350 10.359149 8.361062
v -3.596318 10.834678 8.287776
v -3.655794 10.575881 8.928854
v -1.897411 10.171777 8.281426
v -3.655794 10.575881 8.177784
v -3.715270 10.317084 8.818862
v -1.897411 10.171777 8.281426
v -1.940472 9.984404 8.361062
v -3.715270 10.317084 8.287776
v 3.739905 10.209887 8.553319
v 2.860714 10.007833 8.553319
v 2.836078 10.115032 8.287776
v 3.715270 10.317084 8.287776
v 1.958309 9.906792 8.553319
v 2.836078 10.115032 8.818862
v 1.940472 9.984404 8.745576
v 3.778654 10.604115 8.553319
v 3.715270 10.317084 8.818862
v 3.739905 10.209887 8.553319
v 2.776603 10.373829 8.177784
v 3.655794 10.575881 8.177784
v 2.776603 10.373829 8.928854
v 1.897411 10.171777 8.825211
v 3.655794 10.575881 8.928854
v 3.655794 10.575881 8.177784
v 2.776603 10.373829 8.177784
v 2.717127 10.632626 8.287776
v 3.596318 10.834678 8.287776
v 2.717127 10.632626 8.818862
v 1.854350 10.359149 8.745576
v 3.596318 10.834678 8.818862
v 2.692491 10.739822 8.553319
v 3.571683 10.941875 8.553319
v 1.836513 10.436761 8.553319
v 3.571683 10.941875 8.553319
v 3.596318 10.834678 8.818862
v 1.854350 10.359149 8.361062
v 3.596318 10.834678 8.287776
v 3.655794 10.575881 8.928854
v 1.897411 10.171777 8.281426
v 3.655794 10.575881 8.177784
v 3.715270 10.317084 8.818862
v 1.897411 10.171777 8.281426
v 1.940472 9.984404 8.361062
v 3.715270 10.317084 8.287776
vn -0.4454 -0.0000 -0.8953
vn 0.4454 -0.0000 -0.8953
vn 0.9115 0.0659 -0.4060
vn 0.8606 0.0332 -0.5082
vn -0.8606 0.0332 -0.5082
vn -0.0000 1.0000 0.0030
vn -0.0000 0.9989 -0.0460
vn -0.0000 0.9955 -0.0948
vn -0.9115 0.0659 -0.4060
vn 0.9914 0.1305 -0.0000
vn 0.8660 0.5000 -0.0000
vn 0.5000 0.8660 -0.0000
vn -0.0000 -0.0000 1.0000
vn -0.0000 1.0000 -0.0000
vn 1.0000 -0.0000 -0.0000
vn 0.0043 0.2912 -0.9566
vn -0.0000 0.2922 -0.9563
vn -0.0000 0.2914 -0.9566
vn -0.0000 0.2923 -0.9563
vn -0.0006 0.2932 -0.9560
vn -0.0000 0.2929 -0.9562
vn 0.0020 0.2923 -0.9563
vn 0.0042 0.2913 -0.9566
vn -0.0005 0.2932 -0.9561
vn -0.9914 0.1305 -0.0000
vn -0.8660 0.5000 -0.0000
vn -0.5000 0.8660 -0.0000
vn -1.0000 -0.0000 -0.0000
vn -0.0043 0.2912 -0.9566
vn 0.0006 0.2932 -0.9560
vn -0.0020 0.2923 -0.9563
vn -0.0000 0.2922 -0.9564
vn 0.0005 0.2932 -0.9561
vn -0.7968 0.6042 -0.0000
vn -0.5634 0.6042 -0.5634
vn -0.7060 -0.0571 -0.7060
vn -0.9984 -0.0571 -0.0000
vn -0.9935 -0.1141 -0.0000
vn -0.7025 -0.1141 0.7025
vn -0.7060 -0.0571 0.7060
vn -0.5634 0.6042 0.5634
vn -0.0000 0.6042 -0.7968
vn -0.0000 -0.0571 -0.9984
vn -0.0000 -0.1141 0.9935
vn -0.0000 -0.0571 0.9984
vn -0.0000 0.6042 0.7968
vn 0.5634 0.6042 -0.5634
vn 0.7059 -0.0572 -0.7059
vn 0.7025 -0.1141 0.7025
vn 0.7060 -0.0571 0.7060
vn 0.5634 0.6042 0.5634
vn 0.7968 0.6042 -0.0000
vn 0.9984 -0.0571 -0.0000
vn 0.9935 -0.1141 -0.0000
vn 0.7025 -0.1141 -0.7025
vn -0.0000 -0.1141 -0.9935
vn -0.7025 -0.1141 -0.7025
vn -1.0000 -0.0059 -0.0000
vn -0.8148 0.1362 -0.5634
vn -0.5252 -0.4751 -0.7060
vn -0.7572 -0.6532 -0.0000
vn -0.7186 -0.6954 -0.0000
vn -0.4878 -0.5183 0.7025
vn -0.5252 -0.4751 0.7060
vn -0.8148 0.1362 0.5634
vn -0.6089 0.7933 -0.0000
vn -0.3679 0.4793 -0.7968
vn 0.0348 -0.0453 -0.9984
vn 0.0695 -0.0905 0.9935
vn 0.0348 -0.0453 0.9984
vn -0.3679 0.4793 0.7968
vn 0.0791 0.8224 -0.5634
vn 0.5948 0.3846 -0.7060
vn 0.6267 0.3372 0.7025
vn 0.5948 0.3846 0.7060
vn 0.0791 0.8224 0.5634
vn 0.2642 0.9645 -0.0000
vn 0.8267 0.5627 -0.0000
vn 0.8576 0.5144 -0.0000
vn 0.6268 0.3372 -0.7025
vn 0.0695 -0.0905 -0.9935
vn -0.4878 -0.5183 -0.7025
vn 1.0000 -0.0059 -0.0000
vn 0.7572 -0.6532 -0.0000
vn 0.5253 -0.4750 -0.7060
vn 0.8149 0.1362 -0.5634
vn 0.7186 -0.6954 -0.0000
vn 0.5252 -0.4751 0.7060
vn 0.4878 -0.5183 0.7025
vn 0.6089 0.7933 -0.0000
vn 0.8148 0.1362 0.5634
vn -0.0348 -0.0453 -0.9984
vn 0.3679 0.4793 -0.7968
vn -0.0348 -0.0453 0.9984
vn -0.0695 -0.0905 0.9935
vn 0.3679 0.4793 0.7968
vn -0.5948 0.3845 -0.7060
vn -0.0791 0.8224 -0.5634
vn -0.5948 0.3846 0.7060
vn -0.6267 0.3372 0.7025
vn -0.0791 0.8224 0.5634
vn -0.8267 0.5627 -0.0000
vn -0.2642 0.9645 -0.0000
vn -0.8576 0.5144 -0.0000
vn -0.6268 0.3372 -0.7025
vn -0.0695 -0.0905 -0.9935
vn 0.4878 -0.5183 -0.7025
vn -0.7673 -0.6412 -0.0000
vn -0.7151 -0.4138 -0.5635
vn -0.1025 -0.7008 -0.7060
vn -0.1678 -0.9858 -0.0000
vn -0.1113 -0.9938 -0.0000
vn -0.0461 -0.7102 0.7025
vn -0.1025 -0.7008 0.7060
vn -0.7151 -0.4138 0.5634
vn -0.9746 0.2240 -0.0000
vn -0.5889 0.1353 -0.7968
vn 0.0556 -0.0128 -0.9984
vn 0.1112 -0.0256 0.9935
vn 0.0557 -0.0128 0.9984
vn -0.5889 0.1353 0.7968
vn -0.4627 0.6845 -0.5634
vn 0.2138 0.6752 -0.7060
vn 0.2686 0.6591 0.7025
vn 0.2139 0.6752 0.7059
vn -0.4627 0.6845 0.5634
vn -0.4104 0.9119 -0.0000
vn 0.2792 0.9602 -0.0000
vn 0.3338 0.9427 -0.0000
vn 0.2686 0.6591 -0.7025
vn 0.1112 -0.0256 -0.9935
vn -0.0461 -0.7102 -0.7025
vn 0.7673 -0.6412 -0.0000
vn 0.1678 -0.9858 -0.0000
vn 0.1024 -0.7008 -0.7060
vn 0.7151 -0.4138 -0.5634
vn 0.1113 -0.9938 -0.0000
vn 0.1025 -0.7008 0.7060
vn 0.0461 -0.7102 0.7025
vn 0.9746 0.2240 -0.0000
vn 0.7151 -0.4138 0.5634
vn -0.0556 -0.0128 -0.9984
vn 0.5889 0.1353 -0.7968
vn -0.0555 -0.0128 0.9984
vn -0.1112 -0.0256 0.9935
vn 0.5889 0.1353 0.7968
vn -0.2138 0.6752 -0.7060
vn 0.4627 0.6845 -0.5634
vn -0.2138 0.6752 0.7060
vn -0.2686 0.6591 0.7025
vn 0.4627 0.6844 0.5634
vn -0.2792 0.9602 -0.0000
vn 0.4104 0.9119 -0.0000
vn -0.3338 0.9427 -0.0000
vn -0.2686 0.6591 -0.7025
vn -0.1112 -0.0256 -0.9935
vn 0.0461 -0.7102 -0.7025
vt 0.136610 0.244815
vt 0.136610 0.268586
vt 0.107992 0.268586
vt 0.107992 0.244815
vt 0.065320 0.268586
vt 0.065320 0.244815
vt 0.082084 0.244815
vt 0.082084 0.268586
vt 0.165322 0.244815
vt 0.165322 0.268586
vt 0.527608 0.560815
vt 0.549795 0.581677
vt 0.486006 0.581677
vt 0.508193 0.560815
vt 0.561161 0.602009
vt 0.474641 0.602009
vt 0.191739 0.244815
vt 0.191739 0.268586
vt 0.446990 0.581348
vt 0.439980 0.603749
vt 0.398557 0.603749
vt 0.398557 0.581348
vt 0.434990 0.626869
vt 0.398557 0.626869
vt 0.320580 0.114277
vt 0.367954 0.184368
vt 0.361607 0.208055
vt 0.433210 0.644515
vt 0.398557 0.644515
vt 0.344267 0.225395
vt 0.320580 0.231742
vt 0.467654 0.525014
vt 0.398557 0.525014
vt 0.434225 0.442402
vt 0.559545 0.467952
vt 0.427095 0.467952
vt 0.480477 0.416852
vt 0.559545 0.416852
vt 0.453746 0.423698
vt 0.367954 0.114277
vt 0.393187 0.311978
vt 0.386276 0.311978
vt 0.386276 0.282083
vt 0.393187 0.282083
vt 0.393187 0.252188
vt 0.400099 0.252188
vt 0.400099 0.282083
vt 0.353422 0.262227
vt 0.359202 0.256447
vt 0.363289 0.266315
vt 0.379365 0.311978
vt 0.379365 0.282083
vt 0.407010 0.252188
vt 0.407010 0.282083
vt 0.367377 0.256447
vt 0.434656 0.311978
vt 0.427744 0.311978
vt 0.427744 0.282083
vt 0.434656 0.282083
vt 0.413922 0.252188
vt 0.413922 0.282083
vt 0.373157 0.262227
vt 0.420833 0.311978
vt 0.420833 0.282083
vt 0.420833 0.252188
vt 0.373157 0.270402
vt 0.413922 0.311978
vt 0.427744 0.252188
vt 0.367377 0.276182
vt 0.407010 0.311978
vt 0.434656 0.252188
vt 0.359202 0.276182
vt 0.400099 0.311978
vt 0.379365 0.252188
vt 0.386276 0.252188
vt 0.353422 0.270402
s 1
f 1/1/1 2/2/1 3/3/2
f 1/1/1 3/3/2 4/4/2
f 5/5/3 6/6/3 7/7/4
f 5/5/3 7/7/4 8/8/4
f 1/1/1 9/9/5 10/10/5
f 1/1/1 10/10/5 2/2/1
f 4/4/2 3/3/2 8/8/4
f 4/4/2 8/8/4 7/7/4
f 11/11/6 12/12/7 13/13/7
f 11/11/6 13/13/7 14/14/6
f 15/15/8 16/16/8 13/13/7
f 15/15/8 13/13/7 12/12/7
f 17/17/9 18/18/9 10/10/5
f 17/17/9 10/10/5 9/9/5
f 19/19/10 20/20/11 21/21/11
f 19/19/10 21/21/11 22/22/10
f 21/21/11 20/20/11 23/23/12
f 21/21/11 23/23/12 24/24/12
s 0
f 25/25/13 26/26/13 27/27/13
s 1
f 23/23/12 28/28/14 29/29/14
f 23/23/12 29/29/14 24/24/12
s 0
f 25/25/13 30/30/13 31/31/13
f 27/27/13 30/30/13 25/25/13
s 1
f 32/32/15 19/19/10 22/22/10
f 32/32/15 22/22/10 33/33/15
s 0
f 34/34/16 35/35/17 36/36/18
f 35/35/19 37/37/20 38/38/21
f 39/39/22 35/35/17 34/34/23
f 37/37/24 35/35/19 39/39/22
f 25/25/13 40/40/13 26/26/13
s 1
f 41/19/25 42/22/25 43/21/26
f 41/19/25 43/21/26 44/20/26
f 43/21/26 45/24/27 46/23/27
f 43/21/26 46/23/27 44/20/26
s 0
f 47/27/13 48/26/13 25/25/13
s 1
f 46/23/27 45/24/27 29/29/14
f 46/23/27 29/29/14 28/28/14
s 0
f 31/31/13 49/30/13 25/25/13
f 25/25/13 49/30/13 47/27/13
s 1
f 50/32/28 51/33/28 42/22/25
f 50/32/28 42/22/25 41/19/25
s 0
f 36/36/18 35/35/17 52/34/29
f 53/38/21 54/37/30 35/35/19
f 52/34/29 35/35/17 55/39/31
f 55/39/31 35/35/32 54/37/33
f 48/26/13 56/40/13 25/25/13
s 1
f 57/41/34 58/42/35 59/43/36
f 57/41/34 59/43/36 60/44/37
f 61/45/38 62/46/39 63/47/40
f 61/45/38 63/47/40 60/44/37
f 57/48/34 65/49/41 66/50/14
f 58/42/35 67/51/42 68/52/43
f 58/42/35 68/52/43 59/43/36
f 62/46/39 69/53/44 70/54/45
f 62/46/39 70/54/45 63/47/40
f 65/49/41 71/55/46 66/50/14
f 67/56/42 73/57/47 74/58/48
f 67/56/42 74/58/48 68/59/43
f 69/53/44 76/60/49 77/61/50
f 69/53/44 77/61/50 70/54/45
f 71/55/46 78/62/51 66/50/14
f 73/57/47 79/63/52 80/64/53
f 73/57/47 80/64/53 74/58/48
f 76/60/49 81/65/54 80/64/53
f 76/60/49 80/64/53 77/61/50
f 78/62/51 79/66/52 66/50/14
f 79/63/52 78/67/51 77/61/50
f 79/63/52 77/61/50 80/64/53
f 81/65/54 84/68/55 74/58/48
f 81/65/54 74/58/48 80/64/53
f 79/66/52 73/69/47 66/50/14
f 78/67/51 71/70/46 70/54/45
f 78/67/51 70/54/45 77/61/50
f 84/68/55 87/71/56 68/59/43
f 84/68/55 68/59/43 74/58/48
f 73/69/47 67/72/42 66/50/14
f 71/70/46 65/73/41 63/47/40
f 71/70/46 63/47/40 70/54/45
f 87/74/56 91/75/57 59/43/36
f 87/74/56 59/43/36 68/52/43
f 67/72/42 58/76/35 66/50/14
f 65/73/41 57/41/34 60/44/37
f 65/73/41 60/44/37 63/47/40
f 91/75/57 61/45/38 60/44/37
f 91/75/57 60/44/37 59/43/36
f 58/76/35 57/48/34 66/50/14
f 93/41/58 94/42/59 95/43/60
f 93/41/58 95/43/60 96/44/61
f 97/45/62 98/46/63 99/47/64
f 97/45/62 99/47/64 96/44/61
f 93/48/58 101/49/65 102/50/66
f 94/42/59 103/51/67 104/52/68
f 94/42/59 104/52/68 95/43/60
f 98/46/63 105/53/69 106/54/70
f 98/46/63 106/54/70 99/47/64
f 101/49/65 107/55/71 102/50/66
f 103/56/67 109/57/72 110/58/73
f 103/56/67 110/58/73 104/59/68
f 105/53/69 112/60/74 113/61/75
f 105/53/69 113/61/75 106/54/70
f 107/55/71 114/62/76 102/50/66
f 109/57/72 115/63/77 116/64/78
f 109/57/72 116/64/78 110/58/73
f 112/60/74 117/65/79 116/64/78
f 112/60/74 116/64/78 113/61/75
f 114/62/76 115/66/77 102/50/66
f 115/63/77 114/67/76 113/61/75
f 115/63/77 113/61/75 116/64/78
f 117/65/79 120/68/80 110/58/73
f 117/65/79 110/58/73 116/64/78
f 115/66/77 109/69/72 102/50/66
f 114/67/76 107/70/71 106/54/70
f 114/67/76 106/54/70 113/61/75
f 120/68/80 123/71/81 104/59/68
f 120/68/80 104/59/68 110/58/73
f 109/69/72 103/72/67 102/50/66
f 107/70/71 101/73/65 99/47/64
f 107/70/71 99/47/64 106/54/70
f 123/74/81 127/75/82 95/43/60
f 123/74/81 95/43/60 104/52/68
f 103/72/67 94/76/59 102/50/66
f 101/73/65 93/41/58 96/44/61
f 101/73/65 96/44/61 99/47/64
f 127/75/82 97/45/62 96/44/61
f 127/75/82 96/44/61 95/43/60
f 94/76/59 93/48/58 102/50/66
f 129/41/83 130/44/84 131/43/85
f 129/41/83 131/43/85 132/42/86
f 133/45/87 130/44/84 134/47/88
f 133/45/87 134/47/88 135/46/89
f 136/50/90 137/49/91 129/48/83
f 132/42/86 131/43/85 139/52/92
f 132/42/86 139/52/92 140/51/93
f 135/46/89 134/47/88 141/54/94
f 135/46/89 141/54/94 142/53/95
f 136/50/90 143/55/96 137/49/91
f 140/56/93 139/59/92 146/58/97
f 140/56/93 146/58/97 147/57/98
f 142/53/95 141/54/94 148/61/99
f 142/53/95 148/61/99 149/60/100
f 136/50/90 150/62/101 143/55/96
f 147/57/98 146/58/97 151/64/102
f 147/57/98 151/64/102 152/63/103
f 149/60/100 148/61/99 151/64/102
f 149/60/100 151/64/102 153/65/104
f 136/50/90 152/66/103 150/62/101
f 152/63/103 151/64/102 148/61/99
f 152/63/103 148/61/99 150/67/101
f 153/65/104 151/64/102 146/58/97
f 153/65/104 146/58/97 156/68/105
f 136/50/90 147/69/98 152/66/103
f 150/67/101 148/61/99 141/54/94
f 150/67/101 141/54/94 143/70/96
f 156/68/105 146/58/97 139/59/92
f 156/68/105 139/59/92 159/71/106
f 136/50/90 140/72/93 147/69/98
f 143/70/96 141/54/94 134/47/88
f 143/70/96 134/47/88 137/73/91
f 159/74/106 139/52/92 131/43/85
f 159/74/106 131/43/85 163/75/107
f 136/50/90 132/76/86 140/72/93
f 137/73/91 134/47/88 130/44/84
f 137/73/91 130/44/84 129/41/83
f 163/75/107 131/43/85 130/44/84
f 163/75/107 130/44/84 133/45/87
f 136/50/90 129/48/83 132/76/86
f 165/41/108 166/42/109 167/43/110
f 165/41/108 167/43/110 168/44/111
f 169/45/112 170/46/113 171/47/114
f 169/45/112 171/47/114 168/44/111
f 165/48/108 173/49/115 174/50/116
f 166/42/109 175/51/117 176/52/118
f 166/42/109 176/52/118 167/43/110
f 170/46/113 177/53/119 178/54/120
f 170/46/113 178/54/120 171/47/114
f 173/49/115 179/55/121 174/50/116
f 175/56/117 181/57/122 182/58/123
f 175/56/117 182/58/123 176/59/118
f 177/53/119 184/60/124 185/61/125
f 177/53/119 185/61/125 178/54/120
f 179/55/121 186/62/126 174/50/116
f 181/57/122 187/63/127 188/64/128
f 181/57/122 188/64/128 182/58/123
f 184/60/124 189/65/129 188/64/128
f 184/60/124 188/64/128 185/61/125
f 186/62/126 187/66/127 174/50/116
f 187/63/127 186/67/126 185/61/125
f 187/63/127 185/61/125 188/64/128
f 189/65/129 192/68/130 182/58/123
f 189/65/129 182/58/123 188/64/128
f 187/66/127 181/69/122 174/50/116
f 186/67/126 179/70/121 178/54/120
f 186/67/126 178/54/120 185/61/125
f 192/68/130 195/71/131 176/59/118
f 192/68/130 176/59/118 182/58/123
f 181/69/122 175/72/117 174/50/116
f 179/70/121 173/73/115 171/47/114
f 179/70/121 171/47/114 178/54/120
f 195/74/131 199/75/132 167/43/110
f 195/74/131 167/43/110 176/52/118
f 175/72/117 166/76/109 174/50/116
f 173/73/115 165/41/108 168/44/111
f 173/73/115 168/44/111 171/47/114
f 199/75/132 169/45/112 168/44/111
f 199/75/132 168/44/111 167/43/110
f 166/76/109 165/48/108 174/50/116
f 201/41/133 202/44/134 203/43/135
f 201/41/133 203/43/135 204/42/136
f 205/45/137 202/44/134 206/47/138
f 205/45/137 206/47/138 207/46/139
f 208/50/140 209/49/141 201/48/133
f 204/42/136 203/43/135 211/52/142
f 204/42/136 211/52/142 212/51/143
f 207/46/139 206/47/138 213/54/144
f 207/46/139 213/54/144 214/53/145
f 208/50/140 215/55/146 209/49/141
f 212/56/143 211/59/142 218/58/147
f 212/56/143 218/58/147 219/57/148
f 214/53/145 213/54/144 220/61/149
f 214/53/145 220/61/149 221/60/150
f 208/50/140 222/62/151 215/55/146
f 219/57/148 218/58/147 223/64/152
f 219/57/148 223/64/152 224/63/153
f 221/60/150 220/61/149 223/64/152
f 221/60/150 223/64/152 225/65/154
f 208/50/140 224/66/153 222/62/151
f 224/63/153 223/64/152 220/61/149
f 224/63/153 220/61/149 222/67/151
f 225/65/154 223/64/152 218/58/147
f 225/65/154 218/58/147 228/68/155
f 208/50/140 219/69/148 224/66/153
f 222/67/151 220/61/149 213/54/144
f 222/67/151 213/54/144 215/70/146
f 228/68/155 218/58/147 211/59/142
f 228/68/155 211/59/142 231/71/156
f 208/50/140 212/72/143 219/69/148
f 215/70/146 213/54/144 206/47/138
f 215/70/146 206/47/138 209/73/141
f 231/74/156 211/52/142 203/43/135
f 231/74/156 203/43/135 235/75/157
f 208/50/140 204/76/136 212/72/143
f 209/73/141 206/47/138 202/44/134
f 209/73/141 202/44/134 201/41/133
f 235/75/157 203/43/135 202/44/134
f 235/75/157 202/44/134 205/45/137
f 208/50/140 201/48/133 204/76/136
