# Blender 4.5.4 LTS
# www.blender.org
o spe10_kart_root.polymsh102
v 7.540565 9.225718 -5.044172
v 7.091508 9.187084 -5.226121
v 7.091508 9.942984 -5.386625
v 7.540565 9.981618 -5.204675
v 7.726573 10.074888 -4.765410
v 7.540565 9.981618 -5.204675
v 7.091508 10.162086 -4.783926
v 7.726573 9.318988 -4.604908
v 7.726573 10.074888 -4.765410
v 7.091508 9.942984 -5.386625
v 7.540565 10.168159 -4.326145
v 7.540565 9.412258 -4.165642
v 7.540565 10.168159 -4.326145
v 6.642450 9.225718 -5.044172
v 6.642450 9.981618 -5.204675
v 7.091508 10.206792 -4.144196
v 7.091508 9.450891 -3.983694
v 7.091508 10.206792 -4.144196
v 6.642450 9.981618 -5.204675
v 6.642450 10.168159 -4.326145
v 6.642450 9.412258 -4.165642
v 7.091508 9.450891 -3.983694
v 7.091508 10.206792 -4.144196
v 6.642450 10.168159 -4.326145
v 6.456445 9.318988 -4.604908
v 6.456445 10.074888 -4.765410
v 6.456445 10.074888 -4.765410
v -7.540565 9.225718 -5.044172
v -7.540565 9.981618 -5.204675
v -7.091508 9.942984 -5.386625
v -7.091508 9.187084 -5.226121
v -7.091508 10.162086 -4.783926
v -7.540565 9.981618 -5.204675
v -7.726573 10.074888 -4.765410
v -7.726573 9.318988 -4.604908
v -7.726573 10.074888 -4.765410
v -7.091508 9.942984 -5.386625
v -7.540565 10.168159 -4.326145
v -7.540565 9.412258 -4.165642
v -7.540565 10.168159 -4.326145
v -6.642450 9.981618 -5.204675
v -6.642450 9.225718 -5.044172
v -7.091508 10.206792 -4.144196
v -7.091508 9.450891 -3.983694
v -7.091508 10.206792 -4.144196
v -6.642450 9.981618 -5.204675
v -6.642450 10.168159 -4.326145
v -6.642450 9.412258 -4.165642
v -6.642450 10.168159 -4.326145
v -7.091508 10.206792 -4.144196
v -7.091508 9.450891 -3.983694
v -6.456445 10.074888 -4.765410
v -6.456445 9.318988 -4.604908
v -6.456445 10.074888 -4.765410
v 7.085312 10.014904 -4.386237
v 6.944066 10.441186 -3.217098
v 6.603881 10.395077 -4.192687
v 7.258759 10.683987 -3.269324
v 7.623299 10.371472 -4.273158
v 7.119890 10.763404 -3.714108
v 7.742755 11.369175 -3.493300
v 7.630638 11.156264 -5.461235
v 7.834609 11.453901 -4.577000
v 7.671242 10.596654 -5.538486
v 7.131495 11.476810 -4.523659
v 7.374828 12.081631 -3.536754
v 7.709687 11.974523 -3.571775
v 7.679569 10.628205 -4.741141
v 7.417706 9.934700 -4.737552
v 7.562329 12.017630 -2.576610
v 6.853954 11.468152 -3.476631
v 7.037241 12.046201 -3.502745
v 7.085312 12.039297 -5.456549
v 6.518672 11.992717 -5.244746
v 7.085314 12.735715 -4.951964
v 7.638054 11.972085 -5.272414
v 7.677723 11.409593 -5.798855
v 7.631787 10.880343 -5.980444
v 7.424208 11.577107 -6.134912
v 6.974079 11.005054 -6.153213
v 7.301924 10.930256 -6.222907
v 7.171566 10.267518 -5.934625
v 6.795527 10.416886 -5.897954
v 7.203091 13.318269 -3.470969
v 7.150373 11.150519 -5.636025
v 6.539989 11.156264 -5.461235
v 7.081929 9.931723 -5.500643
v 7.085312 9.870215 -5.032002
v 6.758037 10.053654 -5.447322
v 6.605999 10.637207 -5.616456
v 6.491058 10.628207 -4.741140
v 6.752921 9.934210 -4.739228
v 7.407993 9.991925 -5.388065
v 7.519899 10.312917 -5.769400
v 6.367130 11.472503 -4.602205
v 7.012622 11.498930 -5.935672
v 7.394348 12.234788 -5.667192
v 6.921298 10.817573 -2.841082
v 6.694222 10.631841 -3.330192
v -6.603881 10.395077 -4.192687
v -6.944066 10.441186 -3.217098
v -7.085312 10.014904 -4.386237
v -7.623299 10.371472 -4.273158
v -7.258759 10.683987 -3.269324
v -7.742755 11.369175 -3.493300
v -7.119890 10.763404 -3.714108
v -7.671242 10.596654 -5.538486
v -7.834609 11.453901 -4.577000
v -7.630638 11.156264 -5.461235
v -7.709687 11.974523 -3.571775
v -7.374828 12.081631 -3.536754
v -7.131495 11.476810 -4.523659
v -7.679569 10.628205 -4.741141
v -7.417706 9.934700 -4.737552
v -7.562329 12.017630 -2.576610
v -7.037241 12.046201 -3.502745
v -6.853954 11.468152 -3.476631
v -7.085314 12.735715 -4.951964
v -6.518672 11.992717 -5.244746
v -7.085312 12.039297 -5.456549
v -7.638054 11.972085 -5.272414
v -7.424208 11.577107 -6.134912
v -7.631787 10.880343 -5.980444
v -7.677723 11.409593 -5.798855
v -6.974079 11.005054 -6.153213
v -6.795527 10.416886 -5.897954
v -7.171566 10.267518 -5.934625
v -7.301924 10.930256 -6.222907
v -7.203091 13.318269 -3.470969
v -7.150373 11.150519 -5.636025
v -6.539989 11.156264 -5.461235
v -6.758037 10.053654 -5.447322
v -7.085312 9.870215 -5.032002
v -7.081929 9.931723 -5.500643
v -6.605999 10.637207 -5.616456
v -6.752921 9.934210 -4.739228
v -6.491058 10.628207 -4.741140
v -7.407993 9.991925 -5.388065
v -7.519899 10.312917 -5.769400
v -6.367130 11.472503 -4.602205
v -7.012622 11.498930 -5.935672
v -7.394348 12.234788 -5.667192
v -6.694222 10.631841 -3.330192
v -6.921298 10.817573 -2.841082
vn 0.7071 -0.1469 -0.6917
vn -0.0000 -0.2077 -0.9782
vn 0.1390 0.9687 -0.2057
vn 0.0983 0.9483 -0.3018
vn -0.0000 0.9782 -0.2077
vn 1.0000 -0.0000 -0.0000
vn -0.0000 0.9398 -0.3417
vn 0.0983 0.9891 -0.1095
vn 0.7071 0.1469 0.6917
vn -0.7071 -0.1469 -0.6917
vn -0.0000 0.9976 -0.0697
vn -0.0000 0.2077 0.9782
vn -0.0983 0.9483 -0.3018
vn -0.0983 0.9891 -0.1095
vn -0.7071 0.1469 0.6917
vn -1.0000 -0.0000 -0.0000
vn -0.1390 0.9687 -0.2057
vn -0.0220 -0.8842 0.4665
vn -0.0528 -0.8641 0.5006
vn -0.8389 -0.4042 0.3646
vn 0.8830 0.1928 0.4279
vn 0.8006 -0.4746 0.3657
vn -0.0191 0.4782 0.8780
vn 0.8906 -0.3116 0.3311
vn 0.7345 0.1454 -0.6628
vn 0.9444 -0.0962 0.3145
vn 0.9822 -0.1562 -0.1046
vn -0.0509 0.6651 0.7450
vn 0.0726 0.9645 -0.2537
vn 0.7561 0.5952 -0.2721
vn 0.9917 -0.1213 0.0420
vn 0.7696 -0.6344 0.0721
vn 0.1180 0.5054 0.8548
vn -0.8523 -0.0488 0.5208
vn -0.6598 0.7487 -0.0644
vn 0.0031 0.4094 -0.9123
vn -0.7734 0.4214 -0.4735
vn -0.0145 0.7619 -0.6475
vn 0.7516 0.4093 -0.5173
vn 0.9487 0.2104 0.2362
vn 0.8249 -0.1341 -0.5492
vn 0.2444 0.3234 -0.9141
vn -0.5710 0.1061 -0.8141
vn 0.1807 -0.1630 -0.9699
vn 0.0587 -0.6156 -0.7859
vn -0.6387 -0.3778 -0.6703
vn -0.0343 0.6089 0.7925
vn -0.3468 0.9054 -0.2449
vn -0.7446 0.1167 -0.6572
vn -0.0426 -0.9231 -0.3821
vn -0.0524 -0.9902 -0.1296
vn -0.6462 -0.7074 -0.2863
vn -0.9636 -0.0202 -0.2664
vn -0.9930 -0.0019 0.1185
vn -0.7976 -0.6008 0.0538
vn 0.5889 -0.7837 -0.1974
vn 0.7249 -0.5152 -0.4573
vn -0.9384 -0.1079 0.3282
vn -0.8418 0.5120 -0.1711
vn -0.0943 0.9392 0.3302
vn -0.0944 0.5572 0.8250
vn -0.9552 0.2260 0.1910
vn 0.8389 -0.4042 0.3646
vn 0.0528 -0.8641 0.5006
vn 0.0220 -0.8842 0.4665
vn -0.8006 -0.4747 0.3657
vn -0.8830 0.1928 0.4279
vn -0.8906 -0.3116 0.3311
vn 0.0191 0.4782 0.8780
vn -0.9822 -0.1562 -0.1046
vn -0.9444 -0.0962 0.3145
vn -0.7345 0.1454 -0.6628
vn -0.7561 0.5952 -0.2721
vn -0.0726 0.9645 -0.2537
vn 0.0508 0.6651 0.7451
vn -0.9917 -0.1213 0.0420
vn -0.7696 -0.6344 0.0721
vn -0.1180 0.5054 0.8548
vn 0.6598 0.7487 -0.0644
vn 0.8523 -0.0488 0.5208
vn 0.0144 0.7619 -0.6475
vn 0.7734 0.4214 -0.4736
vn -0.0031 0.4094 -0.9123
vn -0.7516 0.4093 -0.5173
vn -0.2444 0.3234 -0.9141
vn -0.8249 -0.1341 -0.5492
vn -0.9487 0.2104 0.2362
vn 0.5710 0.1061 -0.8141
vn 0.6387 -0.3778 -0.6703
vn -0.0587 -0.6156 -0.7859
vn -0.1807 -0.1630 -0.9699
vn 0.0343 0.6089 0.7925
vn 0.3468 0.9054 -0.2449
vn 0.7446 0.1167 -0.6572
vn 0.6462 -0.7074 -0.2863
vn 0.0524 -0.9902 -0.1296
vn 0.0426 -0.9231 -0.3821
vn 0.9636 -0.0202 -0.2664
vn 0.7976 -0.6008 0.0538
vn 0.9930 -0.0019 0.1185
vn -0.5889 -0.7837 -0.1974
vn -0.7249 -0.5152 -0.4573
vn 0.9384 -0.1079 0.3282
vn 0.8418 0.5120 -0.1711
vn 0.0943 0.9392 0.3302
vn 0.9552 0.2260 0.1910
vn 0.0944 0.5572 0.8250
vt 0.612407 0.205251
vt 0.612409 0.189606
vt 0.645398 0.189606
vt 0.645396 0.205254
vt 0.355772 0.572559
vt 0.361398 0.558977
vt 0.374980 0.572559
vt 0.612403 0.220897
vt 0.645392 0.220902
vt 0.374980 0.553350
vt 0.361398 0.586141
vt 0.612398 0.236545
vt 0.645388 0.236549
vt 0.612407 0.173960
vt 0.645396 0.173957
vt 0.374980 0.591767
vt 0.612397 0.252194
vt 0.645386 0.252194
vt 0.388563 0.558977
vt 0.388563 0.586141
vt 0.612398 0.142666
vt 0.612397 0.127017
vt 0.645386 0.127017
vt 0.645388 0.142662
vt 0.612403 0.158314
vt 0.645392 0.158309
vt 0.394189 0.572559
vt 0.098757 0.282782
vt 0.053556 0.275950
vt 0.088150 0.303550
vt 0.051495 0.290760
vt 0.044108 0.300932
vt 0.051258 0.317976
vt 0.102430 0.352928
vt 0.074637 0.353177
vt 0.119884 0.336583
vt 0.068068 0.346935
vt 0.029281 0.348192
vt 0.035914 0.337647
vt 0.100980 0.322260
vt 0.111197 0.298247
vt 0.006030 0.321918
vt 0.091585 0.392880
vt 0.081983 0.373706
vt 0.058670 0.403272
vt 0.127028 0.367982
vt 0.137316 0.356733
vt 0.136316 0.388163
vt 0.152176 0.364425
vt 0.145643 0.332594
vt 0.132980 0.332484
vt 0.010470 0.395622
vt 0.117213 0.362598
vt 0.140464 0.310215
vt 0.127738 0.296320
vt 0.129135 0.313823
vt 0.111070 0.401369
vt 0.028157 0.282350
s 1
f 1/1/1 2/2/2 3/3/2
f 1/1/1 3/3/2 4/4/1
f 5/5/3 6/6/4 7/7/5
f 8/8/6 1/1/1 4/4/1
f 8/8/6 4/4/1 9/9/6
f 6/6/4 10/10/7 7/7/5
f 11/11/8 5/5/3 7/7/5
f 12/12/9 8/8/6 9/9/6
f 12/12/9 9/9/6 13/13/9
f 2/2/2 14/14/10 15/15/10
f 2/2/2 15/15/10 3/3/2
f 16/16/11 11/11/8 7/7/5
f 17/17/12 12/12/9 13/13/9
f 17/17/12 13/13/9 18/18/12
f 10/10/7 19/19/13 7/7/5
f 20/20/14 16/16/11 7/7/5
f 21/21/15 17/22/12 18/23/12
f 21/21/15 18/23/12 24/24/15
f 14/14/10 25/25/16 26/26/16
f 14/14/10 26/26/16 15/15/10
f 27/27/17 20/20/14 7/7/5
f 25/25/16 21/21/15 24/24/15
f 25/25/16 24/24/15 26/26/16
f 19/19/13 27/27/17 7/7/5
f 28/1/10 29/4/10 30/3/2
f 28/1/10 30/3/2 31/2/2
f 32/7/5 33/6/13 34/5/17
f 35/8/16 36/9/16 29/4/10
f 35/8/16 29/4/10 28/1/10
f 32/7/5 37/10/7 33/6/13
f 32/7/5 34/5/17 38/11/14
f 39/12/15 40/13/15 36/9/16
f 39/12/15 36/9/16 35/8/16
f 31/2/2 30/3/2 41/15/1
f 31/2/2 41/15/1 42/14/1
f 32/7/5 38/11/14 43/16/11
f 44/17/12 45/18/12 40/13/15
f 44/17/12 40/13/15 39/12/15
f 32/7/5 46/19/4 37/10/7
f 32/7/5 43/16/11 47/20/8
f 48/21/9 49/24/9 45/23/12
f 48/21/9 45/23/12 44/22/12
f 42/14/1 41/15/1 52/26/6
f 42/14/1 52/26/6 53/25/6
f 32/7/5 47/20/8 54/27/3
f 53/25/6 52/26/6 49/24/9
f 53/25/6 49/24/9 48/21/9
f 32/7/5 54/27/3 46/19/4
f 55/28/18 56/29/19 57/30/20
f 58/31/21 56/29/19 59/30/22
f 60/32/23 59/30/22 61/33/24
f 62/34/25 63/35/26 64/36/27
f 65/37/28 66/38/29 67/39/30
f 61/33/24 59/30/22 68/40/31
f 68/40/31 67/39/30 61/33/24
f 68/40/31 59/30/22 69/41/32
f 55/28/18 69/41/32 59/30/22
f 61/33/24 67/39/30 70/42/33
f 71/33/34 70/42/33 72/39/35
f 72/39/35 70/42/33 66/38/29
f 73/43/36 74/44/37 75/45/38
f 62/34/25 76/44/39 63/35/26
f 77/46/40 78/47/41 79/48/42
f 80/47/43 81/49/44 82/50/45
f 80/47/43 82/50/45 83/51/46
f 65/37/28 72/39/35 66/38/29
f 76/44/39 84/52/47 63/35/26
f 85/53/48 86/34/49 74/44/37
f 85/53/48 74/44/37 73/43/36
f 69/41/32 64/36/27 68/40/31
f 87/54/50 88/55/51 89/56/52
f 60/32/23 70/42/33 71/33/34
f 90/36/53 86/34/49 85/53/48
f 91/40/54 92/41/55 57/30/20
f 93/56/56 88/55/51 87/54/50
f 83/51/46 90/36/53 80/47/43
f 68/40/31 63/35/26 65/37/28
f 81/49/44 78/47/41 94/51/57
f 81/49/44 94/51/57 82/50/45
f 73/43/36 75/45/38 76/44/39
f 86/34/49 95/35/58 74/44/37
f 94/51/57 78/47/41 64/36/27
f 65/37/28 63/35/26 84/52/47
f 74/44/37 95/35/58 84/52/47
f 77/46/40 64/36/27 78/47/41
f 64/36/27 63/35/26 68/40/31
f 91/40/54 95/35/58 90/36/53
f 85/53/48 73/43/36 76/44/39
f 85/53/48 76/44/39 62/34/25
f 84/52/47 75/45/38 74/44/37
f 80/47/43 90/36/53 96/46/59
f 92/41/55 55/28/18 57/30/20
f 90/36/53 89/56/52 92/41/55
f 69/41/32 93/56/56 64/36/27
f 81/49/44 80/47/43 79/48/42
f 91/40/54 65/37/28 95/35/58
f 91/40/54 71/33/34 72/39/35
f 97/57/60 79/48/42 96/46/59
f 97/57/60 77/46/40 79/48/42
f 71/33/34 57/30/20 60/32/23
f 86/34/49 90/36/53 95/35/58
f 84/52/47 76/44/39 75/45/38
f 69/41/32 88/55/51 93/56/56
f 89/56/52 90/36/53 83/51/46
f 93/56/56 87/54/50 82/50/45
f 93/56/56 82/50/45 94/51/57
f 87/54/50 89/56/52 83/51/46
f 87/54/50 83/51/46 82/50/45
f 64/36/27 93/56/56 94/51/57
f 92/41/55 89/56/52 88/55/51
f 79/48/42 80/47/43 96/46/59
f 81/49/44 79/48/42 78/47/41
f 60/32/23 58/31/21 59/30/22
f 61/33/24 70/42/33 60/32/23
f 67/39/30 66/38/29 70/42/33
f 68/40/31 65/37/28 67/39/30
f 90/36/53 85/53/48 96/46/59
f 55/28/18 59/30/22 56/29/19
f 90/36/53 92/41/55 91/40/54
f 65/37/28 84/52/47 95/35/58
f 91/40/54 72/39/35 65/37/28
f 56/29/19 98/58/61 99/31/62
f 98/58/61 60/32/23 99/31/62
f 98/58/61 58/31/21 60/32/23
f 58/31/21 98/58/61 56/29/19
f 91/40/54 57/30/20 71/33/34
f 57/30/20 56/29/19 99/31/62
f 60/32/23 57/30/20 99/31/62
f 96/46/59 85/53/48 97/57/60
f 77/46/40 97/57/60 85/53/48
f 85/53/48 64/36/27 77/46/40
f 62/34/25 64/36/27 85/53/48
f 100/30/63 101/29/64 102/28/65
f 103/30/66 101/29/64 104/31/67
f 105/33/68 103/30/66 106/32/69
f 107/36/70 108/35/71 109/34/72
f 110/39/73 111/38/74 112/37/75
f 113/40/76 103/30/66 105/33/68
f 105/33/68 110/39/73 113/40/76
f 114/41/77 103/30/66 113/40/76
f 103/30/66 114/41/77 102/28/65
f 115/42/78 110/39/73 105/33/68
f 116/39/79 115/42/78 117/33/80
f 111/38/74 115/42/78 116/39/79
f 118/45/81 119/44/82 120/43/83
f 108/35/71 121/44/84 109/34/72
f 122/48/85 123/47/86 124/46/87
f 125/47/88 126/51/89 127/50/90
f 125/47/88 127/50/90 128/49/91
f 111/38/74 116/39/79 112/37/75
f 108/35/71 129/52/92 121/44/84
f 130/53/93 120/43/83 119/44/82
f 130/53/93 119/44/82 131/34/94
f 113/40/76 107/36/70 114/41/77
f 132/56/95 133/55/96 134/54/97
f 117/33/80 115/42/78 106/32/69
f 130/53/93 131/34/94 135/36/98
f 100/30/63 136/41/99 137/40/100
f 134/54/97 133/55/96 138/56/101
f 125/47/88 135/36/98 126/51/89
f 112/37/75 108/35/71 113/40/76
f 128/49/91 127/50/90 139/51/102
f 128/49/91 139/51/102 123/47/86
f 121/44/84 118/45/81 120/43/83
f 119/44/82 140/35/103 131/34/94
f 107/36/70 123/47/86 139/51/102
f 129/52/92 108/35/71 112/37/75
f 129/52/92 140/35/103 119/44/82
f 123/47/86 107/36/70 124/46/87
f 113/40/76 108/35/71 107/36/70
f 135/36/98 140/35/103 137/40/100
f 130/53/93 109/34/72 121/44/84
f 130/53/93 121/44/84 120/43/83
f 119/44/82 118/45/81 129/52/92
f 141/46/104 135/36/98 125/47/88
f 100/30/63 102/28/65 136/41/99
f 136/41/99 132/56/95 135/36/98
f 107/36/70 138/56/101 114/41/77
f 122/48/85 125/47/88 128/49/91
f 140/35/103 112/37/75 137/40/100
f 116/39/79 117/33/80 137/40/100
f 141/46/104 122/48/85 142/57/105
f 122/48/85 124/46/87 142/57/105
f 106/32/69 100/30/63 117/33/80
f 140/35/103 135/36/98 131/34/94
f 118/45/81 121/44/84 129/52/92
f 138/56/101 133/55/96 114/41/77
f 126/51/89 135/36/98 132/56/95
f 138/56/101 139/51/102 127/50/90
f 138/56/101 127/50/90 134/54/97
f 134/54/97 127/50/90 126/51/89
f 134/54/97 126/51/89 132/56/95
f 139/51/102 138/56/101 107/36/70
f 133/55/96 132/56/95 136/41/99
f 141/46/104 125/47/88 122/48/85
f 123/47/86 122/48/85 128/49/91
f 103/30/66 104/31/67 106/32/69
f 106/32/69 115/42/78 105/33/68
f 115/42/78 111/38/74 110/39/73
f 110/39/73 112/37/75 113/40/76
f 141/46/104 130/53/93 135/36/98
f 101/29/64 103/30/66 102/28/65
f 137/40/100 136/41/99 135/36/98
f 140/35/103 129/52/92 112/37/75
f 112/37/75 116/39/79 137/40/100
f 143/31/106 144/58/107 101/29/64
f 143/31/106 106/32/69 144/58/107
f 106/32/69 104/31/67 144/58/107
f 101/29/64 144/58/107 104/31/67
f 117/33/80 100/30/63 137/40/100
f 143/31/106 101/29/64 100/30/63
f 143/31/106 100/30/63 106/32/69
f 142/57/105 130/53/93 141/46/104
f 130/53/93 142/57/105 124/46/87
f 124/46/87 107/36/70 130/53/93
f 130/53/93 107/36/70 109/34/72
