# Blender 4.5.4 LTS
# www.blender.org
o spe10_kart_root.polymsh_detached30
v -4.721805 0.359313 9.770403
v -4.721805 0.359313 11.848101
v -4.721805 0.122202 10.809252
v -4.721805 1.023682 8.937310
v -4.721805 1.023682 12.681194
v -4.721805 1.983723 8.474977
v -4.721805 1.983723 13.143526
v -4.898086 5.014122 10.809252
v -7.353780 5.014122 10.809252
v -7.353780 4.766781 11.892927
v -4.898086 4.766781 11.892927
v -7.353780 4.073744 12.761967
v -4.898086 4.073744 12.761967
v -9.510868 2.516506 10.809252
v -7.530061 3.532730 11.298639
v -7.530061 3.532730 10.319863
v -7.530061 3.532730 10.319863
v -7.530061 4.910810 10.809252
v -7.530061 4.673699 9.770403
v -7.353780 3.072278 13.244247
v -4.898086 3.072278 13.244247
v -9.510868 2.516506 10.809252
v -7.530061 2.767493 11.908896
v -7.530061 2.793757 11.887951
v -7.530061 3.532730 11.298639
v -7.530061 4.673699 11.848101
v -7.530061 3.532730 11.298639
v -7.530061 4.009330 12.681193
v -7.353780 1.960734 13.244247
v -4.898086 1.960734 13.244247
v -7.530061 1.813257 11.691098
v -7.530061 2.767493 11.908896
v -9.510868 2.516506 10.809252
v -7.530061 3.049289 13.143526
v -7.530061 2.767493 11.908896
v -7.530061 1.983723 13.143526
v -4.898086 0.959268 12.761967
v -7.353780 0.959268 12.761967
v -7.530061 1.388582 10.809252
v -7.530061 1.813257 11.691098
v -9.510868 2.516506 10.809252
v -7.530061 0.122202 10.809252
v -7.530061 0.359313 11.848101
v -7.530061 1.388582 10.809252
v -4.898086 0.266231 11.892927
v -7.353780 0.266231 11.892927
v -7.530061 1.813257 9.927406
v -7.530061 1.388582 10.809252
v -9.510868 2.516506 10.809252
v -7.530061 1.023682 8.937310
v -7.530061 0.359313 9.770403
v -7.530061 1.813257 9.927406
v -7.353780 0.018890 10.809252
v -4.898086 0.018890 10.809252
v -7.530061 2.767493 9.709607
v -7.530061 1.813257 9.927406
v -9.510868 2.516506 10.809252
v -7.530061 3.049289 8.474977
v -7.530061 1.983723 8.474977
v -7.530061 2.767493 9.709607
v -7.353780 0.266231 9.725576
v -4.898086 0.266231 9.725576
v -7.530061 3.532730 10.319863
v -7.530061 2.767493 9.709607
v -9.510868 2.516506 10.809252
v -7.530061 4.009330 8.937309
v -7.353780 0.959268 8.856537
v -4.898086 0.959268 8.856537
v -7.530061 2.793757 11.887951
v -7.353780 1.960734 8.374256
v -4.898086 1.960734 8.374256
v -7.530061 1.813257 11.691098
v -7.530061 1.023682 12.681194
v -7.353780 3.072278 8.374256
v -4.898086 3.072278 8.374256
v -4.898086 1.960734 8.374256
v -7.353780 1.960734 8.374256
v -7.353780 4.073744 8.856537
v -4.898086 4.073744 8.856537
v -7.353780 4.766781 9.725576
v -4.898086 4.766781 9.725576
v -7.530061 4.673699 11.848101
v -7.353780 4.766781 11.892927
v -7.353780 5.014122 10.809252
v -7.530061 4.910810 10.809252
v -7.530061 4.009330 12.681193
v -7.353780 4.073744 12.761967
v -7.530061 3.049289 13.143526
v -7.353780 3.072278 13.244247
v -7.530061 1.983723 13.143526
v -7.353780 1.960734 13.244247
v -7.530061 1.023682 12.681194
v -7.353780 0.959268 12.761967
v -7.530061 0.359313 11.848101
v -7.353780 0.266231 11.892927
v -7.530061 0.122202 10.809252
v -7.353780 0.018890 10.809252
v -7.530061 0.359313 9.770403
v -7.353780 0.266231 9.725576
v -7.530061 1.023682 8.937310
v -7.353780 0.959268 8.856537
v -7.530061 1.983723 8.474977
v -7.353780 1.960734 8.374256
v -7.530061 3.049289 8.474977
v -7.353780 3.072278 8.374256
v -7.353780 1.960734 8.374256
v -7.530061 1.983723 8.474977
v -7.530061 4.009330 8.937309
v -7.353780 4.073744 8.856537
v -7.530061 4.673699 9.770403
v -7.353780 4.766781 9.725576
v -4.721805 4.910810 10.809252
v -4.721805 4.673699 9.770403
v -4.898086 4.766781 9.725576
v -4.898086 5.014122 10.809252
v -4.721805 4.009330 8.937309
v -4.898086 4.073744 8.856537
v -4.721805 1.023682 12.681194
v -4.721805 1.983723 13.143526
v -4.898086 1.960734 13.244247
v -4.898086 0.959268 12.761967
v -4.721805 0.359313 11.848101
v -4.898086 0.266231 11.892927
v -4.721805 3.049289 8.474977
v -4.898086 3.072278 8.374256
v -4.721805 3.049289 13.143526
v -4.898086 3.072278 13.244247
v -4.721805 4.009330 12.681193
v -4.898086 4.073744 12.761967
v -4.721805 1.983723 8.474977
v -4.898086 1.960734 8.374256
v -4.721805 0.122202 10.809252
v -4.898086 0.018890 10.809252
v -4.721805 4.673699 11.848101
v -4.898086 4.766781 11.892927
v -4.721805 1.983723 8.474977
v -4.721805 1.023682 8.937310
v -4.898086 0.959268 8.856537
v -4.898086 1.960734 8.374256
v -4.721805 0.359313 9.770403
v -4.898086 0.266231 9.725576
v -4.721805 4.910810 10.809252
v -4.721805 4.673699 11.848101
v -4.721805 4.673699 9.770403
v -4.721805 4.009330 8.937309
v -4.721805 4.009330 12.681193
v -4.721805 3.049289 13.143526
v -4.721805 3.049289 8.474977
vn 1.0000 -0.0000 -0.0000
vn -0.0000 1.0000 -0.0000
vn -0.0000 0.9010 0.4339
vn -0.0000 0.6235 0.7818
vn -0.4565 0.8897 -0.0000
vn -1.0000 -0.0000 -0.0000
vn -0.0000 0.2225 0.9749
vn -0.4565 0.5548 0.6956
vn -0.4565 0.5547 0.6956
vn -0.0000 -0.2225 0.9749
vn -0.4565 -0.1980 0.8674
vn -0.0000 -0.6235 0.7818
vn -0.4565 -0.8016 0.3860
vn -0.0000 -0.9010 0.4339
vn -0.4565 -0.8016 -0.3860
vn -0.0000 -1.0000 -0.0000
vn -0.4565 -0.1980 -0.8674
vn -0.0000 -0.9010 -0.4339
vn -0.4565 0.5547 -0.6956
vn -0.0000 -0.6235 -0.7818
vn -0.0000 -0.2225 -0.9749
vn -0.0000 0.2225 -0.9749
vn -0.0000 0.6235 -0.7818
vn -0.0000 0.9010 -0.4339
vn -0.5056 0.7773 0.3743
vn -0.5056 0.8628 -0.0000
vn -0.5056 0.5379 0.6745
vn -0.5056 0.1920 0.8411
vn -0.5056 -0.1920 0.8411
vn -0.5056 -0.5379 0.6745
vn -0.5056 -0.7773 0.3743
vn -0.5056 -0.8628 -0.0000
vn -0.5056 -0.7773 -0.3743
vn -0.5056 -0.5379 -0.6745
vn -0.5056 -0.1920 -0.8411
vn -0.5056 0.1920 -0.8411
vn -0.5056 0.5379 -0.6745
vn -0.5056 0.7773 -0.3743
vn 0.5056 0.8628 -0.0000
vn 0.5056 0.7773 -0.3743
vn 0.5056 0.5379 -0.6745
vn 0.5056 -0.5379 0.6745
vn 0.5056 -0.1920 0.8411
vn 0.5056 -0.7773 0.3743
vn 0.5056 0.1920 -0.8411
vn 0.5056 0.1920 0.8411
vn 0.5056 0.5379 0.6745
vn 0.5056 -0.1920 -0.8411
vn 0.5056 -0.8628 -0.0000
vn 0.5056 0.7773 0.3743
vn 0.5056 -0.5379 -0.6745
vn 0.5056 -0.7773 -0.3743
vt 0.588537 0.749854
vt 0.624811 0.749854
vt 0.606674 0.745714
vt 0.573993 0.761453
vt 0.639355 0.761453
vt 0.565922 0.778214
vt 0.647427 0.778214
vt 0.020750 0.826712
vt 0.120912 0.826712
vt 0.120912 0.784608
vt 0.020750 0.784608
vt 0.120912 0.742504
vt 0.020750 0.742504
vt 0.539450 0.930402
vt 0.545638 0.992778
vt 0.563175 0.992778
vt 0.671190 0.947514
vt 0.653837 0.996377
vt 0.690672 0.987969
vt 0.120912 0.700401
vt 0.020750 0.700401
vt 0.527992 0.992778
vt 0.528540 0.992778
vt 0.617002 0.987969
vt 0.636485 0.947514
vt 0.587463 0.964413
vt 0.120912 0.658297
vt 0.020750 0.658297
vt 0.509881 0.992778
vt 0.571070 0.930372
vt 0.614847 0.920380
vt 0.571070 0.892590
vt 0.020750 0.616194
vt 0.120912 0.616194
vt 0.491183 0.992778
vt 0.653837 0.826585
vt 0.617002 0.834993
vt 0.653837 0.871488
vt 0.020750 0.574090
vt 0.120912 0.574090
vt 0.472218 0.992778
vt 0.720212 0.858549
vt 0.690672 0.834993
vt 0.685105 0.886546
vt 0.120912 0.531987
vt 0.020750 0.531987
vt 0.581079 0.992778
vt 0.599657 0.992778
vt 0.736605 0.930372
vt 0.736605 0.892590
vt 0.692828 0.920380
vt 0.120912 0.489883
vt 0.020750 0.489883
vt 0.720212 0.964413
vt 0.120912 0.447779
vt 0.020750 0.447779
vt 0.615590 0.921312
vt 0.120912 0.405675
vt 0.020750 0.405675
vt 0.622569 0.886546
vt 0.587463 0.858549
vt 0.120912 0.953022
vt 0.020750 0.953022
vt 0.020750 0.995126
vt 0.120912 0.995126
vt 0.120912 0.910919
vt 0.020750 0.910919
vt 0.120912 0.868815
vt 0.020750 0.868815
vt 0.137548 0.784608
vt 0.137548 0.826712
vt 0.137548 0.742504
vt 0.137548 0.700401
vt 0.137548 0.658297
vt 0.137548 0.616194
vt 0.137548 0.574090
vt 0.137548 0.531987
vt 0.137548 0.489883
vt 0.137548 0.447779
vt 0.137548 0.405675
vt 0.137548 0.953022
vt 0.137548 0.995126
vt 0.137548 0.910919
vt 0.137548 0.868815
vt 0.004114 0.826712
vt 0.004114 0.868815
vt 0.004114 0.910919
vt 0.004114 0.616194
vt 0.004114 0.658297
vt 0.004114 0.574090
vt 0.004114 0.953022
vt 0.004114 0.700401
vt 0.004114 0.742504
vt 0.004114 0.995126
vt 0.004114 0.531987
vt 0.004114 0.784608
vt 0.004114 0.405675
vt 0.004114 0.447779
vt 0.004114 0.489883
vt 0.606674 0.829316
vt 0.624811 0.825176
vt 0.588537 0.825176
vt 0.573993 0.813578
vt 0.639355 0.813578
vt 0.647427 0.796817
vt 0.565922 0.796817
s 0
f 1/1/1 2/2/1 3/3/1
f 1/1/1 4/4/1 5/5/1
f 1/1/1 5/5/1 2/2/1
f 4/4/1 6/6/1 7/7/1
f 4/4/1 7/7/1 5/5/1
s 1
f 8/8/2 9/9/2 10/10/3
f 8/8/2 10/10/3 11/11/3
f 12/12/4 13/13/4 11/11/3
f 12/12/4 11/11/3 10/10/3
s 0
f 14/14/5 15/15/5 16/16/5
f 17/17/6 18/18/6 19/19/6
s 1
f 13/13/4 12/12/4 20/20/7
f 13/13/4 20/20/7 21/21/7
s 0
f 22/14/8 23/22/8 24/23/8
f 22/14/9 24/23/9 25/15/9
f 26/24/6 27/25/6 28/26/6
s 1
f 29/27/10 30/28/10 21/21/7
f 29/27/10 21/21/7 20/20/7
s 0
f 31/29/11 32/22/11 33/14/11
f 34/30/6 35/31/6 36/32/6
s 1
f 37/33/12 30/28/10 29/27/10
f 37/33/12 29/27/10 38/34/12
s 0
f 39/35/13 40/29/13 41/14/13
f 42/36/6 43/37/6 44/38/6
s 1
f 45/39/14 37/33/12 38/34/12
f 45/39/14 38/34/12 46/40/14
s 0
f 47/41/15 48/35/15 49/14/15
f 50/42/6 51/43/6 52/44/6
s 1
f 53/45/16 54/46/16 45/39/14
f 53/45/16 45/39/14 46/40/14
s 0
f 55/47/17 56/48/17 57/14/17
f 58/49/6 59/50/6 60/51/6
s 1
f 61/52/18 62/53/18 54/46/16
f 61/52/18 54/46/16 53/45/16
s 0
f 63/16/19 64/47/19 65/14/19
f 19/19/6 66/54/6 17/17/6
s 1
f 67/55/20 68/56/20 62/53/18
f 67/55/20 62/53/18 61/52/18
s 0
f 28/26/6 27/25/6 69/57/6
f 34/30/6 28/26/6 69/57/6
f 34/30/6 69/57/6 35/31/6
s 1
f 70/58/21 71/59/21 68/56/20
f 70/58/21 68/56/20 67/55/20
s 0
f 36/32/6 35/31/6 72/60/6
f 36/32/6 72/60/6 73/61/6
s 1
f 74/62/22 75/63/22 71/64/21
f 74/62/22 71/64/21 70/65/21
s 0
f 72/60/6 43/37/6 73/61/6
f 44/38/6 43/37/6 72/60/6
s 1
f 78/66/23 79/67/23 75/63/22
f 78/66/23 75/63/22 74/62/22
s 0
f 44/38/6 51/43/6 42/36/6
f 52/44/6 51/43/6 44/38/6
s 1
f 80/68/24 81/69/24 79/67/23
f 80/68/24 79/67/23 78/66/23
s 0
f 52/44/6 59/50/6 50/42/6
f 60/51/6 59/50/6 52/44/6
s 1
f 9/9/2 8/8/2 81/69/24
f 9/9/2 81/69/24 80/68/24
s 0
f 60/51/6 66/54/6 58/49/6
f 17/17/6 66/54/6 60/51/6
f 18/18/6 17/17/6 27/25/6
f 18/18/6 27/25/6 26/24/6
s 1
f 82/70/25 83/10/25 84/9/26
f 82/70/25 84/9/26 85/71/26
f 86/72/27 87/12/27 83/10/25
f 86/72/27 83/10/25 82/70/25
f 88/73/28 89/20/28 87/12/27
f 88/73/28 87/12/27 86/72/27
f 90/74/29 91/27/29 89/20/28
f 90/74/29 89/20/28 88/73/28
f 92/75/30 93/34/30 91/27/29
f 92/75/30 91/27/29 90/74/29
f 94/76/31 95/40/31 93/34/30
f 94/76/31 93/34/30 92/75/30
f 96/77/32 97/45/32 95/40/31
f 96/77/32 95/40/31 94/76/31
f 98/78/33 99/52/33 97/45/32
f 98/78/33 97/45/32 96/77/32
f 100/79/34 101/55/34 99/52/33
f 100/79/34 99/52/33 98/78/33
f 102/80/35 103/58/35 101/55/34
f 102/80/35 101/55/34 100/79/34
f 104/81/36 105/62/36 103/65/35
f 104/81/36 103/65/35 102/82/35
f 108/83/37 109/66/37 105/62/36
f 108/83/37 105/62/36 104/81/36
f 110/84/38 111/68/38 109/66/37
f 110/84/38 109/66/37 108/83/37
f 85/71/26 84/9/26 111/68/38
f 85/71/26 111/68/38 110/84/38
f 112/85/39 113/86/40 114/69/40
f 112/85/39 114/69/40 115/8/39
f 113/86/40 116/87/41 117/67/41
f 113/86/40 117/67/41 114/69/40
f 118/88/42 119/89/43 120/28/43
f 118/88/42 120/28/43 121/33/42
f 122/90/44 118/88/42 121/33/42
f 122/90/44 121/33/42 123/39/44
f 116/87/41 124/91/45 125/63/45
f 116/87/41 125/63/45 117/67/41
f 119/89/43 126/92/46 127/21/46
f 119/89/43 127/21/46 120/28/43
f 126/92/46 128/93/47 129/13/47
f 126/92/46 129/13/47 127/21/46
f 124/91/45 130/94/48 131/64/48
f 124/91/45 131/64/48 125/63/45
f 132/95/49 122/90/44 123/39/44
f 132/95/49 123/39/44 133/46/49
f 128/93/47 134/96/50 135/11/50
f 128/93/47 135/11/50 129/13/47
f 130/97/48 137/98/51 138/56/51
f 130/97/48 138/56/51 131/59/48
f 140/99/52 132/95/49 133/46/49
f 140/99/52 133/46/49 141/53/52
f 134/96/50 112/85/39 115/8/39
f 134/96/50 115/8/39 135/11/50
f 137/98/51 140/99/52 141/53/52
f 137/98/51 141/53/52 138/56/51
s 0
f 142/100/1 143/101/1 144/102/1
f 145/103/1 144/102/1 143/101/1
f 145/103/1 143/101/1 146/104/1
f 145/103/1 146/104/1 147/105/1
f 145/103/1 147/105/1 148/106/1
f 6/6/1 148/106/1 147/105/1
f 6/6/1 147/105/1 7/7/1
