# Blender 4.5.4 LTS
# www.blender.org
o spe10_kart_root.polymsh_detached23
v 0.000002 11.843005 3.956935
v 0.666100 11.714018 3.896862
v 0.560096 11.447677 3.863825
v 0.000002 11.557985 3.915200
v 1.286657 11.346690 3.725785
v 1.090787 11.133544 3.717524
v 1.701300 10.796947 3.469752
v 1.445384 10.663411 3.498567
v 1.846903 10.148479 3.167739
v 1.569902 10.108851 3.240291
v 1.701300 9.500012 2.865727
v 1.445384 9.554293 2.982014
v 1.286657 8.950269 2.609693
v 1.090787 9.084160 2.763058
v 0.666100 8.582942 2.438617
v 0.560096 8.770027 2.616756
v 0.000002 8.453954 2.378543
v 0.000002 8.659719 2.565382
v 1.090787 10.976732 4.004619
v 0.560096 11.290866 4.150920
v 1.448295 10.508918 3.781939
v 1.569902 9.952040 3.527386
v 1.445384 9.397480 3.269109
v 1.090787 8.927347 3.050153
v 0.560096 8.613214 2.903851
v 0.000002 8.502906 2.852477
v 0.739562 11.753099 4.186135
v 1.422397 11.348907 3.997889
v 1.878653 10.743992 3.716160
v 2.038868 10.030446 3.383839
v 1.878653 9.316899 3.051517
v 1.422397 8.711985 2.769788
v 0.739562 8.307794 2.581542
v 0.000002 8.165860 2.515439
v 0.000002 11.401173 4.202295
v 0.000002 11.895031 4.252238
v 0.666100 11.477949 4.329060
v 1.286657 11.110622 4.157984
v 1.701300 10.560879 3.901950
v 1.846903 9.912412 3.599938
v 1.701300 9.263945 3.297925
v 1.286657 8.714201 3.041892
v 0.666100 8.346874 2.870815
v 0.000002 8.217886 2.810741
v 0.000002 11.606937 4.389133
v 1.286657 11.110622 4.157984
v 1.701300 10.560879 3.901950
v 1.846903 9.912412 3.599938
v 1.701300 9.263945 3.297925
v 1.286657 8.714201 3.041892
v 0.666100 8.346874 2.870815
v 0.000002 8.217886 2.810741
v 0.666100 11.477949 4.329060
v 0.000002 11.606937 4.389133
v -0.560093 11.447677 3.863825
v -0.666097 11.714018 3.896862
v -1.090785 11.133544 3.717524
v -1.286654 11.346690 3.725785
v -1.445382 10.663411 3.498567
v -1.701297 10.796947 3.469752
v -1.569898 10.108851 3.240291
v -1.846901 10.148479 3.167739
v -1.445382 9.554293 2.982014
v -1.701297 9.500012 2.865727
v -1.090785 9.084160 2.763058
v -1.286654 8.950269 2.609693
v -0.560093 8.770027 2.616756
v -0.666097 8.582942 2.438617
v -0.560093 11.290866 4.150920
v -1.090785 10.976732 4.004619
v -1.448292 10.508918 3.781939
v -1.569898 9.952040 3.527386
v -1.445382 9.397480 3.269109
v -1.090785 8.927347 3.050153
v -0.560093 8.613214 2.903851
v -0.739559 11.753099 4.186135
v -1.422395 11.348907 3.997889
v -1.878650 10.743992 3.716160
v -2.038866 10.030446 3.383839
v -1.878650 9.316899 3.051517
v -1.422395 8.711985 2.769788
v -0.739559 8.307794 2.581542
v -1.286654 11.110622 4.157984
v -0.666097 11.477949 4.329060
v -1.701297 10.560879 3.901950
v -1.846901 9.912412 3.599938
v -1.701297 9.263945 3.297925
v -1.286654 8.714201 3.041892
v -0.666097 8.346874 2.870815
v -1.286654 11.110622 4.157984
v -1.701297 10.560879 3.901950
v -1.846901 9.912412 3.599938
v -1.701297 9.263945 3.297925
v -1.286654 8.714201 3.041892
v -0.666097 8.346874 2.870815
v -0.666097 11.477949 4.329060
vn -0.0000 0.6932 -0.7208
vn 0.1237 0.6704 -0.7316
vn -0.3011 -0.3891 -0.8706
vn -0.0000 -0.4393 -0.8983
vn 0.2216 0.6063 -0.7638
vn -0.5482 -0.2466 -0.7992
vn 0.2846 0.5113 -0.8109
vn -0.7285 -0.0209 -0.6848
vn 0.3006 0.4033 -0.8643
vn -0.7983 0.2551 -0.5456
vn 0.2699 0.3008 -0.9147
vn -0.7421 0.5348 -0.4041
vn 0.2010 0.2189 -0.9548
vn -0.5688 0.7726 -0.2821
vn 0.1086 0.1673 -0.9799
vn -0.3157 0.9272 -0.2015
vn -0.0000 0.1502 -0.9887
vn -0.0000 0.9846 -0.1748
vn -0.5685 -0.7734 0.2804
vn -0.3157 -0.9272 0.2015
vn -0.7432 -0.5345 0.4026
vn -0.7983 -0.2532 0.5465
vn -0.7273 0.0199 0.6860
vn -0.5482 0.2454 0.7995
vn -0.3011 0.3891 0.8706
vn -0.0000 0.4393 0.8983
vn 0.3834 0.8205 0.4239
vn 0.6990 0.6354 0.3281
vn 0.9208 0.3467 0.1789
vn 1.0000 -0.0000 -0.0000
vn 0.9208 -0.3467 -0.1788
vn 0.6990 -0.6354 -0.3281
vn 0.3834 -0.8205 -0.4239
vn -0.0000 -0.8884 -0.4591
vn -0.0000 -0.9846 0.1748
vn -0.0000 0.8884 0.4591
vn 0.1089 -0.1674 0.9799
vn 0.1998 -0.2211 0.9546
vn 0.2664 -0.3026 0.9151
vn 0.2983 -0.4031 0.8652
vn 0.2846 -0.5113 0.8109
vn 0.2216 -0.6063 0.7638
vn 0.1237 -0.6704 0.7316
vn -0.0000 -0.6932 0.7208
vn -0.0000 -0.1502 0.9887
vn 0.3011 -0.3891 -0.8706
vn -0.1237 0.6704 -0.7316
vn 0.5482 -0.2466 -0.7992
vn -0.2216 0.6063 -0.7638
vn 0.7285 -0.0209 -0.6848
vn -0.2846 0.5113 -0.8109
vn 0.7983 0.2551 -0.5456
vn -0.3006 0.4033 -0.8643
vn 0.7421 0.5348 -0.4041
vn -0.2699 0.3008 -0.9147
vn 0.5688 0.7726 -0.2821
vn -0.2010 0.2189 -0.9548
vn 0.3157 0.9272 -0.2015
vn -0.1089 0.1674 -0.9799
vn 0.3157 -0.9272 0.2015
vn 0.5685 -0.7734 0.2804
vn 0.7432 -0.5345 0.4026
vn 0.7983 -0.2532 0.5465
vn 0.7273 0.0199 0.6860
vn 0.5482 0.2454 0.7995
vn 0.3011 0.3891 0.8706
vn -0.3834 0.8205 0.4239
vn -0.6990 0.6354 0.3281
vn -0.9208 0.3467 0.1789
vn -1.0000 -0.0000 -0.0000
vn -0.9208 -0.3467 -0.1788
vn -0.6990 -0.6354 -0.3281
vn -0.3834 -0.8205 -0.4240
vn -0.1998 -0.2211 0.9546
vn -0.1089 -0.1674 0.9799
vn -0.2664 -0.3026 0.9151
vn -0.2983 -0.4031 0.8652
vn -0.2846 -0.5113 0.8109
vn -0.2216 -0.6063 0.7638
vn -0.1237 -0.6704 0.7316
vt 0.649432 0.267316
vt 0.649432 0.291750
vt 0.641725 0.291750
vt 0.641725 0.267316
vt 0.649432 0.309832
vt 0.641725 0.309832
vt 0.649432 0.325121
vt 0.641725 0.325121
vt 0.649432 0.339553
vt 0.641725 0.339553
vt 0.649432 0.353685
vt 0.641725 0.353685
vt 0.649432 0.368561
vt 0.641725 0.368561
vt 0.649432 0.387124
vt 0.641725 0.387124
vt 0.649432 0.411588
vt 0.641725 0.411588
vt 0.632450 0.309832
vt 0.632450 0.291750
vt 0.632450 0.325121
vt 0.632450 0.339553
vt 0.632450 0.353685
vt 0.632450 0.368561
vt 0.632450 0.387124
vt 0.632450 0.411588
vt 0.656875 0.291750
vt 0.656875 0.309832
vt 0.656875 0.325121
vt 0.656875 0.339553
vt 0.656875 0.353685
vt 0.656875 0.368561
vt 0.656875 0.387124
vt 0.656875 0.411588
vt 0.632450 0.267316
vt 0.656875 0.267316
vt 0.664318 0.291750
vt 0.664318 0.309832
vt 0.664318 0.325121
vt 0.664318 0.339553
vt 0.664318 0.353685
vt 0.664318 0.368561
vt 0.664318 0.387124
vt 0.664318 0.411588
vt 0.664318 0.267316
vt 0.624228 0.309832
vt 0.624228 0.325121
vt 0.624228 0.339553
vt 0.624228 0.353685
vt 0.624228 0.368561
vt 0.624228 0.387124
vt 0.624228 0.411588
vt 0.624228 0.291750
vt 0.624228 0.267316
s 1
f 1/1/1 2/2/2 3/3/3
f 1/1/1 3/3/3 4/4/4
f 2/2/2 5/5/5 6/6/6
f 2/2/2 6/6/6 3/3/3
f 5/5/5 7/7/7 8/8/8
f 5/5/5 8/8/8 6/6/6
f 7/7/7 9/9/9 10/10/10
f 7/7/7 10/10/10 8/8/8
f 9/9/9 11/11/11 12/12/12
f 9/9/9 12/12/12 10/10/10
f 11/11/11 13/13/13 14/14/14
f 11/11/11 14/14/14 12/12/12
f 13/13/13 15/15/15 16/16/16
f 13/13/13 16/16/16 14/14/14
f 15/15/15 17/17/17 18/18/18
f 15/15/15 18/18/18 16/16/16
f 6/6/6 19/19/19 20/20/20
f 6/6/6 20/20/20 3/3/3
f 8/8/8 21/21/21 19/19/19
f 8/8/8 19/19/19 6/6/6
f 10/10/10 22/22/22 21/21/21
f 10/10/10 21/21/21 8/8/8
f 12/12/12 23/23/23 22/22/22
f 12/12/12 22/22/22 10/10/10
f 14/14/14 24/24/24 23/23/23
f 14/14/14 23/23/23 12/12/12
f 16/16/16 25/25/25 24/24/24
f 16/16/16 24/24/24 14/14/14
f 18/18/18 26/26/26 25/25/25
f 18/18/18 25/25/25 16/16/16
f 27/27/27 28/28/28 5/5/5
f 27/27/27 5/5/5 2/2/2
f 28/28/28 29/29/29 7/7/7
f 28/28/28 7/7/7 5/5/5
f 29/29/29 30/30/30 9/9/9
f 29/29/29 9/9/9 7/7/7
f 30/30/30 31/31/31 11/11/11
f 30/30/30 11/11/11 9/9/9
f 31/31/31 32/32/32 13/13/13
f 31/31/31 13/13/13 11/11/11
f 32/32/32 33/33/33 15/15/15
f 32/32/32 15/15/15 13/13/13
f 33/33/33 34/34/34 17/17/17
f 33/33/33 17/17/17 15/15/15
f 3/3/3 20/20/20 35/35/35
f 3/3/3 35/35/35 4/4/4
f 36/36/36 27/27/27 2/2/2
f 36/36/36 2/2/2 1/1/1
f 27/27/27 37/37/37 38/38/38
f 27/27/27 38/38/38 28/28/28
f 28/28/28 38/38/38 39/39/39
f 28/28/28 39/39/39 29/29/29
f 29/29/29 39/39/39 40/40/40
f 29/29/29 40/40/40 30/30/30
f 30/30/30 40/40/40 41/41/41
f 30/30/30 41/41/41 31/31/31
f 31/31/31 41/41/41 42/42/42
f 31/31/31 42/42/42 32/32/32
f 32/32/32 42/42/42 43/43/43
f 32/32/32 43/43/43 33/33/33
f 33/33/33 43/43/43 44/44/44
f 33/33/33 44/44/44 34/34/34
f 36/36/36 45/45/45 37/37/37
f 36/36/36 37/37/37 27/27/27
f 38/46/38 19/19/19 21/21/21
f 38/46/38 21/21/21 39/47/39
f 39/47/39 21/21/21 22/22/22
f 39/47/39 22/22/22 40/48/40
f 40/48/40 22/22/22 23/23/23
f 40/48/40 23/23/23 41/49/41
f 41/49/41 23/23/23 24/24/24
f 41/49/41 24/24/24 42/50/42
f 42/50/42 24/24/24 25/25/25
f 42/50/42 25/25/25 43/51/43
f 43/51/43 25/25/25 26/26/26
f 43/51/43 26/26/26 44/52/44
f 37/53/37 20/20/20 19/19/19
f 37/53/37 19/19/19 38/46/38
f 45/54/45 35/35/35 20/20/20
f 45/54/45 20/20/20 37/53/37
f 1/1/1 4/4/4 55/3/46
f 1/1/1 55/3/46 56/2/47
f 56/2/47 55/3/46 57/6/48
f 56/2/47 57/6/48 58/5/49
f 58/5/49 57/6/48 59/8/50
f 58/5/49 59/8/50 60/7/51
f 60/7/51 59/8/50 61/10/52
f 60/7/51 61/10/52 62/9/53
f 62/9/53 61/10/52 63/12/54
f 62/9/53 63/12/54 64/11/55
f 64/11/55 63/12/54 65/14/56
f 64/11/55 65/14/56 66/13/57
f 66/13/57 65/14/56 67/16/58
f 66/13/57 67/16/58 68/15/59
f 68/15/59 67/16/58 18/18/18
f 68/15/59 18/18/18 17/17/17
f 57/6/48 55/3/46 69/20/60
f 57/6/48 69/20/60 70/19/61
f 59/8/50 57/6/48 70/19/61
f 59/8/50 70/19/61 71/21/62
f 61/10/52 59/8/50 71/21/62
f 61/10/52 71/21/62 72/22/63
f 63/12/54 61/10/52 72/22/63
f 63/12/54 72/22/63 73/23/64
f 65/14/56 63/12/54 73/23/64
f 65/14/56 73/23/64 74/24/65
f 67/16/58 65/14/56 74/24/65
f 67/16/58 74/24/65 75/25/66
f 18/18/18 67/16/58 75/25/66
f 18/18/18 75/25/66 26/26/26
f 76/27/67 56/2/47 58/5/49
f 76/27/67 58/5/49 77/28/68
f 77/28/68 58/5/49 60/7/51
f 77/28/68 60/7/51 78/29/69
f 78/29/69 60/7/51 62/9/53
f 78/29/69 62/9/53 79/30/70
f 79/30/70 62/9/53 64/11/55
f 79/30/70 64/11/55 80/31/71
f 80/31/71 64/11/55 66/13/57
f 80/31/71 66/13/57 81/32/72
f 81/32/72 66/13/57 68/15/59
f 81/32/72 68/15/59 82/33/73
f 82/33/73 68/15/59 17/17/17
f 82/33/73 17/17/17 34/34/34
f 55/3/46 4/4/4 35/35/35
f 55/3/46 35/35/35 69/20/60
f 36/36/36 1/1/1 56/2/47
f 36/36/36 56/2/47 76/27/67
f 76/27/67 77/28/68 83/38/74
f 76/27/67 83/38/74 84/37/75
f 77/28/68 78/29/69 85/39/76
f 77/28/68 85/39/76 83/38/74
f 78/29/69 79/30/70 86/40/77
f 78/29/69 86/40/77 85/39/76
f 79/30/70 80/31/71 87/41/78
f 79/30/70 87/41/78 86/40/77
f 80/31/71 81/32/72 88/42/79
f 80/31/71 88/42/79 87/41/78
f 81/32/72 82/33/73 89/43/80
f 81/32/72 89/43/80 88/42/79
f 82/33/73 34/34/34 44/44/44
f 82/33/73 44/44/44 89/43/80
f 36/36/36 76/27/67 84/37/75
f 36/36/36 84/37/75 45/45/45
f 83/46/74 85/47/76 71/21/62
f 83/46/74 71/21/62 70/19/61
f 85/47/76 86/48/77 72/22/63
f 85/47/76 72/22/63 71/21/62
f 86/48/77 87/49/78 73/23/64
f 86/48/77 73/23/64 72/22/63
f 87/49/78 88/50/79 74/24/65
f 87/49/78 74/24/65 73/23/64
f 88/50/79 89/51/80 75/25/66
f 88/50/79 75/25/66 74/24/65
f 89/51/80 44/52/44 26/26/26
f 89/51/80 26/26/26 75/25/66
f 84/53/75 83/46/74 70/19/61
f 84/53/75 70/19/61 69/20/60
f 45/54/45 84/53/75 69/20/60
f 45/54/45 69/20/60 35/35/35
